<?xml version="1.0" encoding="utf-8"?>
<!-- Generator: Adobe Illustrator 22.0.1, SVG Export Plug-In . SVG Version: 6.00 Build 0)  -->
<svg version="1.1" id="Layer_1" xmlns="http://www.w3.org/2000/svg" xmlns:xlink="http://www.w3.org/1999/xlink" x="0px" y="0px"
	 viewBox="0 0 1280 720" style="enable-background:new 0 0 1280 720;" xml:space="preserve">
<style type="text/css">
	.st0{fill:#CCCCCC;stroke:#666666;stroke-miterlimit:10;}
	.st1{fill:#662D91;stroke:#662D91;stroke-miterlimit:10;}
	.st2{fill:#666666;stroke:#666666;stroke-miterlimit:10;}
	.st3{fill:#9E005D;stroke:#662D91;stroke-miterlimit:10;}
	.st4{fill:none;stroke:#666666;stroke-miterlimit:10;}
	.st5{fill:#4D4D4D;stroke:#4D4D4D;stroke-miterlimit:10;}
	.st6{fill:#4D4D4D;}
	.st7{fill:none;stroke:#4D4D4D;stroke-miterlimit:10;}
</style>
<path class="st0" d="M46,96c0,11.6-6.2,18-14,18s-14-6.4-14-18s6.2-22,14-22S46,84.4,46,96z"/>
<path class="st1" d="M46,74c0,1.1-3.1,4-7,4s-7-2.9-7-4s3.1,0,7,0S46,72.9,46,74z"/>
<ellipse class="st1" cx="32" cy="73" rx="6" ry="3"/>
<ellipse class="st2" cx="29" cy="84" rx="1" ry="4"/>
<ellipse class="st2" cx="39" cy="84" rx="1" ry="4"/>
<path class="st2" d="M38,91c0,1.7-1.8,3-4,3s-4-1.3-4-3s1.8-1,4-1S38,89.3,38,91z"/>
<path class="st1" d="M46,96c0,11.6-6.2,18-14,18s-14-6.4-14-18s8.2,2,16,2S46,84.4,46,96z"/>
<path class="st3" d="M36,104h-6c-2.2,0-4-1.8-4-4v0c0-8,0-4,4-2h6c4-2,4-4,4,2v0C40,102.2,38.2,104,36,104z"/>
<path class="st3" d="M44,102L44,102c-1.1,0-2-0.9-2-2v-6c0,0,0.9-2,2-2h0c1.1,0,2,2,2,2s0,4.5,0,6C46,101.1,44,102,44,102z"/>
<path class="st3" d="M20,102L20,102c-1.1,0-2-0.9-2-2v-6c0,0,0.9-2,2-2h0c4,0,4,2,4,2l-2,6C22,101.1,20,102,20,102z"/>
<path class="st0" d="M56,88c0,1.7-1.3,6-3,6s-3-1.3-3-3s0.3-5,2-5S56,86.3,56,88z"/>
<circle class="st0" cx="32" cy="122" r="4"/>
<path class="st4" d="M34,118c0,2.2-0.3,4-2,4c-1.7,0-2-1.8-2-4s1.3-4,3-4C34.7,114,34,115.8,34,118z"/>
<path class="st0" d="M110,96c0,11.6-6.2,18-14,18s-14-6.4-14-18s6.2-22,14-22S110,84.4,110,96z"/>
<path class="st1" d="M110,74c0,1.1-3.1,4-7,4s-7-2.9-7-4s3.1,0,7,0S110,72.9,110,74z"/>
<ellipse class="st1" cx="96" cy="73" rx="6" ry="3"/>
<ellipse class="st2" cx="93" cy="84" rx="1" ry="4"/>
<ellipse class="st2" cx="103" cy="84" rx="1" ry="4"/>
<path class="st2" d="M102,91c0,1.7-1.8,3-4,3s-4-1.3-4-3s1.8-1,4-1S102,89.3,102,91z"/>
<path class="st1" d="M110,96c0,11.6-6.2,18-14,18s-14-6.4-14-18s8.2,2,16,2S110,84.4,110,96z"/>
<path class="st3" d="M100,104h-6c-2.2,0-4-1.8-4-4v0c0-8,0-4,4-2h6c4-2,4-4,4,2v0C104,102.2,102.2,104,100,104z"/>
<path class="st3" d="M108,102L108,102c-1.1,0-2-0.9-2-2v-6c0,0,0.9-2,2-2l0,0c1.1,0,2,2,2,2s0,4.5,0,6C110,101.1,108,102,108,102z"
	/>
<path class="st3" d="M84,102L84,102c-1.1,0-2-0.9-2-2v-6c0,0,0.9-2,2-2l0,0c4,0,4,2,4,2l-2,6C86,101.1,84,102,84,102z"/>
<path class="st0" d="M80,101c0,1.7-1.3,3-3,3s-3-0.3-3-2s1.3-4,3-4S80,99.3,80,101z"/>
<circle class="st0" cx="96" cy="122" r="4"/>
<path class="st4" d="M98,118c0,2.2-0.3,4-2,4s-2-1.8-2-4s1.3-4,3-4S98,115.8,98,118z"/>
<path class="st0" d="M16,99c0,1.7-1.3,3-3,3s-3-0.3-3-2s1.3-4,3-4S16,97.3,16,99z"/>
<path class="st0" d="M120,86c0,1.7-1.3,6-3,6s-3-1.3-3-3s0.3-5,2-5S120,84.3,120,86z"/>
<path class="st0" d="M174,96c0,11.6-6.2,18-14,18s-14-6.4-14-18s6.2-22,14-22S174,84.4,174,96z"/>
<path class="st1" d="M174,74c0,1.1-3.1,4-7,4s-7-2.9-7-4s3.1,0,7,0S174,72.9,174,74z"/>
<ellipse class="st1" cx="160" cy="73" rx="6" ry="3"/>
<ellipse class="st2" cx="157" cy="84" rx="1" ry="4"/>
<ellipse class="st2" cx="167" cy="84" rx="1" ry="4"/>
<path class="st2" d="M166,91c0,1.7-1.8,3-4,3s-4-1.3-4-3s1.8-1,4-1S166,89.3,166,91z"/>
<path class="st1" d="M174,96c0,11.6-6.2,18-14,18s-14-6.4-14-18s8.2,2,16,2S174,84.4,174,96z"/>
<path class="st3" d="M164,104h-6c-2.2,0-4-1.8-4-4v0c0-8,0-4,4-2h6c4-2,4-4,4,2v0C168,102.2,166.2,104,164,104z"/>
<path class="st3" d="M172,102L172,102c-1.1,0-2-0.9-2-2v-6c0,0,0.9-2,2-2l0,0c1.1,0,2,2,2,2s0,4.5,0,6C174,101.1,172,102,172,102z"
	/>
<path class="st3" d="M148,102L148,102c-1.1,0-2-0.9-2-2v-6c0,0,0.9-2,2-2l0,0c4,0,4,2,4,2l-2,6C150,101.1,148,102,148,102z"/>
<path class="st0" d="M184,84c0,1.7-1.3,6-3,6s-3-1.3-3-3s0.3-5,2-5S184,82.3,184,84z"/>
<circle class="st0" cx="160" cy="122" r="4"/>
<path class="st4" d="M162,118c0,2.2-0.3,4-2,4s-2-1.8-2-4s1.3-4,3-4S162,115.8,162,118z"/>
<path class="st0" d="M238,96c0,11.6-6.2,18-14,18s-14-6.4-14-18s6.2-22,14-22S238,84.4,238,96z"/>
<path class="st1" d="M238,74c0,1.1-3.1,4-7,4s-7-2.9-7-4s3.1,0,7,0S238,72.9,238,74z"/>
<ellipse class="st1" cx="224" cy="73" rx="6" ry="3"/>
<ellipse class="st2" cx="221" cy="84" rx="1" ry="4"/>
<ellipse class="st2" cx="231" cy="84" rx="1" ry="4"/>
<path class="st2" d="M230,91c0,1.7-1.8,3-4,3s-4-1.3-4-3s1.8-1,4-1S230,89.3,230,91z"/>
<path class="st1" d="M238,96c0,11.6-6.2,18-14,18s-14-6.4-14-18s8.2,2,16,2S238,84.4,238,96z"/>
<path class="st3" d="M228,104h-6c-2.2,0-4-1.8-4-4v0c0-8,0-4,4-2h6c4-2,4-4,4,2v0C232,102.2,230.2,104,228,104z"/>
<path class="st3" d="M236,102L236,102c-1.1,0-2-0.9-2-2v-6c0,0,0.9-2,2-2l0,0c1.1,0,2,2,2,2s0,4.5,0,6C238,101.1,236,102,236,102z"
	/>
<path class="st3" d="M212,102L212,102c-1.1,0-2-0.9-2-2v-6c0,0,0.9-2,2-2l0,0c4,0,4,2,4,2l-2,6C214,101.1,212,102,212,102z"/>
<path class="st0" d="M208,101c0,1.7-1.3,3-3,3s-3-0.3-3-2s1.3-4,3-4S208,99.3,208,101z"/>
<circle class="st0" cx="224" cy="122" r="4"/>
<path class="st4" d="M226,118c0,2.2-0.3,4-2,4s-2-1.8-2-4s1.3-4,3-4S226,115.8,226,118z"/>
<path class="st0" d="M144,103c0,1.7-1.3,3-3,3s-3-0.3-3-2s1.3-4,3-4S144,101.3,144,103z"/>
<path class="st0" d="M248,90c0,1.7-1.3,6-3,6s-3-1.3-3-3s0.3-5,2-5S248,88.3,248,90z"/>
<path class="st0" d="M302,96c0,11.6-6.2,18-14,18s-14-6.4-14-18s6.2-22,14-22S302,84.4,302,96z"/>
<path class="st1" d="M302,74c0,1.1-3.1,4-7,4s-7-2.9-7-4s3.1,0,7,0S302,72.9,302,74z"/>
<ellipse class="st1" cx="288" cy="73" rx="6" ry="3"/>
<ellipse class="st2" cx="285" cy="84" rx="1" ry="4"/>
<ellipse class="st2" cx="295" cy="84" rx="1" ry="4"/>
<path class="st2" d="M294,91c0,1.7-1.8,3-4,3s-4-1.3-4-3s1.8-1,4-1S294,89.3,294,91z"/>
<path class="st1" d="M302,96c0,11.6-6.2,18-14,18s-14-6.4-14-18s8.2,2,16,2S302,84.4,302,96z"/>
<path class="st3" d="M292,104h-6c-2.2,0-4-1.8-4-4v0c0-8,0-4,4-2h6c4-2,4-4,4,2v0C296,102.2,294.2,104,292,104z"/>
<path class="st3" d="M300,102L300,102c-1.1,0-2-0.9-2-2v-6c0,0,0.9-2,2-2l0,0c1.1,0,2,2,2,2s0,4.5,0,6C302,101.1,300,102,300,102z"
	/>
<path class="st3" d="M276,102L276,102c-1.1,0-2-0.9-2-2v-6c0,0,0.9-2,2-2l0,0c4,0,4,2,4,2l-2,6C278,101.1,276,102,276,102z"/>
<path class="st0" d="M312,88c0,1.7-1.3,6-3,6s-3-1.3-3-3s0.3-5,2-5S312,86.3,312,88z"/>
<circle class="st0" cx="288" cy="122" r="4"/>
<path class="st4" d="M290,118c0,2.2-0.3,4-2,4s-2-1.8-2-4s1.3-4,3-4S290,115.8,290,118z"/>
<path class="st0" d="M366,96c0,11.6-6.2,18-14,18s-14-6.4-14-18s6.2-22,14-22S366,84.4,366,96z"/>
<path class="st1" d="M366,74c0,1.1-3.1,4-7,4s-7-2.9-7-4s3.1,0,7,0S366,72.9,366,74z"/>
<ellipse class="st1" cx="352" cy="73" rx="6" ry="3"/>
<ellipse class="st2" cx="349" cy="84" rx="1" ry="4"/>
<ellipse class="st2" cx="359" cy="84" rx="1" ry="4"/>
<path class="st2" d="M358,91c0,1.7-1.8,3-4,3s-4-1.3-4-3s1.8-1,4-1S358,89.3,358,91z"/>
<path class="st1" d="M366,96c0,11.6-6.2,18-14,18s-14-6.4-14-18s8.2,2,16,2S366,84.4,366,96z"/>
<path class="st3" d="M356,104h-6c-2.2,0-4-1.8-4-4v0c0-8,0-4,4-2h6c4-2,4-4,4,2v0C360,102.2,358.2,104,356,104z"/>
<path class="st3" d="M364,102L364,102c-1.1,0-2-0.9-2-2v-6c0,0,0.9-2,2-2l0,0c1.1,0,2,2,2,2s0,4.5,0,6C366,101.1,364,102,364,102z"
	/>
<path class="st3" d="M340,102L340,102c-1.1,0-2-0.9-2-2v-6c0,0,0.9-2,2-2l0,0c4,0,4,2,4,2l-2,6C342,101.1,340,102,340,102z"/>
<path class="st0" d="M336,97c0,1.7-1.3,3-3,3s-3-0.3-3-2s1.3-4,3-4S336,95.3,336,97z"/>
<circle class="st0" cx="352" cy="122" r="4"/>
<path class="st4" d="M354,118c0,2.2-0.3,4-2,4s-2-1.8-2-4s1.3-4,3-4S354,115.8,354,118z"/>
<path class="st0" d="M272,99c0,1.7-1.3,3-3,3s-3-0.3-3-2s1.3-4,3-4S272,97.3,272,99z"/>
<path class="st0" d="M376,86c0,1.7-1.3,6-3,6s-3-1.3-3-3s0.3-5,2-5S376,84.3,376,86z"/>
<path class="st0" d="M430,96c0,11.6-6.2,18-14,18s-14-6.4-14-18s6.2-22,14-22S430,84.4,430,96z"/>
<path class="st1" d="M430,74c0,1.1-3.1,4-7,4s-7-2.9-7-4s3.1,0,7,0S430,72.9,430,74z"/>
<ellipse class="st1" cx="416" cy="73" rx="6" ry="3"/>
<ellipse class="st2" cx="413" cy="84" rx="1" ry="4"/>
<ellipse class="st2" cx="423" cy="84" rx="1" ry="4"/>
<path class="st2" d="M422,91c0,1.7-1.8,3-4,3s-4-1.3-4-3s1.8-1,4-1S422,89.3,422,91z"/>
<path class="st1" d="M430,96c0,11.6-6.2,18-14,18s-14-6.4-14-18s8.2,2,16,2S430,84.4,430,96z"/>
<path class="st3" d="M420,104h-6c-2.2,0-4-1.8-4-4v0c0-8,0-4,4-2h6c4-2,4-4,4,2v0C424,102.2,422.2,104,420,104z"/>
<path class="st3" d="M428,102L428,102c-1.1,0-2-0.9-2-2v-6c0,0,0.9-2,2-2l0,0c1.1,0,2,2,2,2s0,4.5,0,6C430,101.1,428,102,428,102z"
	/>
<path class="st3" d="M404,102L404,102c-1.1,0-2-0.9-2-2v-6c0,0,0.9-2,2-2l0,0c4,0,4,2,4,2l-2,6C406,101.1,404,102,404,102z"/>
<path class="st0" d="M440,84c0,1.7-1.3,6-3,6s-3-1.3-3-3s0.3-5,2-5S440,82.3,440,84z"/>
<circle class="st0" cx="416" cy="122" r="4"/>
<path class="st4" d="M418,118c0,2.2-0.3,4-2,4s-2-1.8-2-4s1.3-4,3-4S418,115.8,418,118z"/>
<path class="st0" d="M494,96c0,11.6-6.2,18-14,18s-14-6.4-14-18s6.2-22,14-22S494,84.4,494,96z"/>
<path class="st1" d="M494,74c0,1.1-3.1,4-7,4s-7-2.9-7-4s3.1,0,7,0S494,72.9,494,74z"/>
<ellipse class="st1" cx="480" cy="73" rx="6" ry="3"/>
<ellipse class="st2" cx="477" cy="84" rx="1" ry="4"/>
<ellipse class="st2" cx="487" cy="84" rx="1" ry="4"/>
<path class="st2" d="M486,91c0,1.7-1.8,3-4,3s-4-1.3-4-3s1.8-1,4-1S486,89.3,486,91z"/>
<path class="st1" d="M494,96c0,11.6-6.2,18-14,18s-14-6.4-14-18s8.2,2,16,2S494,84.4,494,96z"/>
<path class="st3" d="M484,104h-6c-2.2,0-4-1.8-4-4v0c0-8,0-4,4-2h6c4-2,4-4,4,2v0C488,102.2,486.2,104,484,104z"/>
<path class="st3" d="M492,102L492,102c-1.1,0-2-0.9-2-2v-6c0,0,0.9-2,2-2l0,0c1.1,0,2,2,2,2s0,4.5,0,6C494,101.1,492,102,492,102z"
	/>
<path class="st3" d="M468,102L468,102c-1.1,0-2-0.9-2-2v-6c0,0,0.9-2,2-2l0,0c4,0,4,2,4,2l-2,6C470,101.1,468,102,468,102z"/>
<path class="st0" d="M464,97c0,1.7-1.3,3-3,3s-3-0.3-3-2s1.3-4,3-4S464,95.3,464,97z"/>
<circle class="st0" cx="480" cy="122" r="4"/>
<path class="st4" d="M482,118c0,2.2-0.3,4-2,4s-2-1.8-2-4s1.3-4,3-4S482,115.8,482,118z"/>
<path class="st0" d="M400,95c0,1.7-1.3,3-3,3s-3-0.3-3-2s1.3-4,3-4S400,93.3,400,95z"/>
<path class="st0" d="M504,86c0,1.7-1.3,6-3,6s-3-1.3-3-3s0.3-5,2-5S504,84.3,504,86z"/>
<path class="st0" d="M468,160c0,11.6,6.2,18,14,18s14-6.4,14-18s-6.2-22-14-22S468,148.4,468,160z"/>
<path class="st1" d="M468,138c0,1.1,3.1,4,7,4s7-2.9,7-4s-3.1,0-7,0S468,136.9,468,138z"/>
<ellipse class="st1" cx="482" cy="137" rx="6" ry="3"/>
<ellipse class="st2" cx="485" cy="148" rx="1" ry="4"/>
<ellipse class="st2" cx="475" cy="148" rx="1" ry="4"/>
<path class="st2" d="M476,155c0,1.7,1.8,3,4,3s4-1.3,4-3s-1.8-1-4-1S476,153.3,476,155z"/>
<path class="st1" d="M468,160c0,11.6,6.2,18,14,18s14-6.4,14-18s-8.2,2-16,2S468,148.4,468,160z"/>
<path class="st3" d="M478,168h6c2.2,0,4-1.8,4-4l0,0c0-8,0-4-4-2h-6c-4-2-4-4-4,2l0,0C474,166.2,475.8,168,478,168z"/>
<path class="st3" d="M470,166L470,166c1.1,0,2-0.9,2-2v-6c0,0-0.9-2-2-2l0,0c-1.1,0-2,2-2,2s0,4.5,0,6C468,165.1,470,166,470,166z"
	/>
<path class="st3" d="M494,166L494,166c1.1,0,2-0.9,2-2v-6c0,0-0.9-2-2-2l0,0c-4,0-4,2-4,2l2,6C492,165.1,494,166,494,166z"/>
<path class="st0" d="M458,152c0,1.7,1.3,6,3,6s3-1.3,3-3s-0.3-5-2-5S458,150.3,458,152z"/>
<circle class="st0" cx="482" cy="186" r="4"/>
<path class="st4" d="M480,182c0,2.2,0.3,4,2,4s2-1.8,2-4s-1.3-4-3-4S480,179.8,480,182z"/>
<path class="st0" d="M404,160c0,11.6,6.2,18,14,18s14-6.4,14-18s-6.2-22-14-22S404,148.4,404,160z"/>
<path class="st1" d="M404,138c0,1.1,3.1,4,7,4s7-2.9,7-4s-3.1,0-7,0S404,136.9,404,138z"/>
<ellipse class="st1" cx="418" cy="137" rx="6" ry="3"/>
<ellipse class="st2" cx="421" cy="148" rx="1" ry="4"/>
<ellipse class="st2" cx="411" cy="148" rx="1" ry="4"/>
<path class="st2" d="M412,155c0,1.7,1.8,3,4,3s4-1.3,4-3s-1.8-1-4-1S412,153.3,412,155z"/>
<path class="st1" d="M404,160c0,11.6,6.2,18,14,18s14-6.4,14-18s-8.2,2-16,2S404,148.4,404,160z"/>
<path class="st3" d="M414,168h6c2.2,0,4-1.8,4-4l0,0c0-8,0-4-4-2h-6c-4-2-4-4-4,2l0,0C410,166.2,411.8,168,414,168z"/>
<path class="st3" d="M406,166L406,166c1.1,0,2-0.9,2-2v-6c0,0-0.9-2-2-2l0,0c-1.1,0-2,2-2,2s0,4.5,0,6C404,165.1,406,166,406,166z"
	/>
<path class="st3" d="M430,166L430,166c1.1,0,2-0.9,2-2v-6c0,0-0.9-2-2-2l0,0c-4,0-4,2-4,2l2,6C428,165.1,430,166,430,166z"/>
<path class="st0" d="M434,165c0,1.7,1.3,3,3,3s3-0.3,3-2s-1.3-4-3-4S434,163.3,434,165z"/>
<circle class="st0" cx="418" cy="186" r="4"/>
<path class="st4" d="M416,182c0,2.2,0.3,4,2,4s2-1.8,2-4s-1.3-4-3-4S416,179.8,416,182z"/>
<path class="st0" d="M498,163c0,1.7,1.3,3,3,3s3-0.3,3-2s-1.3-4-3-4S498,161.3,498,163z"/>
<path class="st0" d="M394,150c0,1.7,1.3,6,3,6s3-1.3,3-3s-0.3-5-2-5S394,148.3,394,150z"/>
<path class="st0" d="M340,160c0,11.6,6.2,18,14,18s14-6.4,14-18s-6.2-22-14-22S340,148.4,340,160z"/>
<path class="st1" d="M340,138c0,1.1,3.1,4,7,4s7-2.9,7-4s-3.1,0-7,0S340,136.9,340,138z"/>
<ellipse class="st1" cx="354" cy="137" rx="6" ry="3"/>
<ellipse class="st2" cx="357" cy="148" rx="1" ry="4"/>
<ellipse class="st2" cx="347" cy="148" rx="1" ry="4"/>
<path class="st2" d="M348,155c0,1.7,1.8,3,4,3s4-1.3,4-3s-1.8-1-4-1S348,153.3,348,155z"/>
<path class="st1" d="M340,160c0,11.6,6.2,18,14,18s14-6.4,14-18s-8.2,2-16,2S340,148.4,340,160z"/>
<path class="st3" d="M350,168h6c2.2,0,4-1.8,4-4l0,0c0-8,0-4-4-2h-6c-4-2-4-4-4,2l0,0C346,166.2,347.8,168,350,168z"/>
<path class="st3" d="M342,166L342,166c1.1,0,2-0.9,2-2v-6c0,0-0.9-2-2-2l0,0c-1.1,0-2,2-2,2s0,4.5,0,6C340,165.1,342,166,342,166z"
	/>
<path class="st3" d="M366,166L366,166c1.1,0,2-0.9,2-2v-6c0,0-0.9-2-2-2l0,0c-4,0-4,2-4,2l2,6C364,165.1,366,166,366,166z"/>
<path class="st0" d="M330,148c0,1.7,1.3,6,3,6s3-1.3,3-3s-0.3-5-2-5S330,146.3,330,148z"/>
<circle class="st0" cx="354" cy="186" r="4"/>
<path class="st4" d="M352,182c0,2.2,0.3,4,2,4s2-1.8,2-4s-1.3-4-3-4S352,179.8,352,182z"/>
<path class="st0" d="M276,160c0,11.6,6.2,18,14,18s14-6.4,14-18s-6.2-22-14-22S276,148.4,276,160z"/>
<path class="st1" d="M276,138c0,1.1,3.1,4,7,4s7-2.9,7-4s-3.1,0-7,0S276,136.9,276,138z"/>
<ellipse class="st1" cx="290" cy="137" rx="6" ry="3"/>
<ellipse class="st2" cx="293" cy="148" rx="1" ry="4"/>
<ellipse class="st2" cx="283" cy="148" rx="1" ry="4"/>
<path class="st2" d="M284,155c0,1.7,1.8,3,4,3s4-1.3,4-3s-1.8-1-4-1S284,153.3,284,155z"/>
<path class="st1" d="M276,160c0,11.6,6.2,18,14,18s14-6.4,14-18s-8.2,2-16,2S276,148.4,276,160z"/>
<path class="st3" d="M286,168h6c2.2,0,4-1.8,4-4l0,0c0-8,0-4-4-2h-6c-4-2-4-4-4,2l0,0C282,166.2,283.8,168,286,168z"/>
<path class="st3" d="M278,166L278,166c1.1,0,2-0.9,2-2v-6c0,0-0.9-2-2-2l0,0c-1.1,0-2,2-2,2s0,4.5,0,6C276,165.1,278,166,278,166z"
	/>
<path class="st3" d="M302,166L302,166c1.1,0,2-0.9,2-2v-6c0,0-0.9-2-2-2l0,0c-4,0-4,2-4,2l2,6C300,165.1,302,166,302,166z"/>
<path class="st0" d="M306,165c0,1.7,1.3,3,3,3s3-0.3,3-2s-1.3-4-3-4S306,163.3,306,165z"/>
<circle class="st0" cx="290" cy="186" r="4"/>
<path class="st4" d="M288,182c0,2.2,0.3,4,2,4s2-1.8,2-4s-1.3-4-3-4S288,179.8,288,182z"/>
<path class="st0" d="M370,167c0,1.7,1.3,3,3,3s3-0.3,3-2s-1.3-4-3-4S370,165.3,370,167z"/>
<path class="st0" d="M266,154c0,1.7,1.3,6,3,6s3-1.3,3-3s-0.3-5-2-5S266,152.3,266,154z"/>
<path class="st0" d="M212,160c0,11.6,6.2,18,14,18s14-6.4,14-18s-6.2-22-14-22S212,148.4,212,160z"/>
<path class="st1" d="M212,138c0,1.1,3.1,4,7,4s7-2.9,7-4s-3.1,0-7,0S212,136.9,212,138z"/>
<ellipse class="st1" cx="226" cy="137" rx="6" ry="3"/>
<ellipse class="st2" cx="229" cy="148" rx="1" ry="4"/>
<ellipse class="st2" cx="219" cy="148" rx="1" ry="4"/>
<path class="st2" d="M220,155c0,1.7,1.8,3,4,3s4-1.3,4-3s-1.8-1-4-1S220,153.3,220,155z"/>
<path class="st1" d="M212,160c0,11.6,6.2,18,14,18s14-6.4,14-18s-8.2,2-16,2S212,148.4,212,160z"/>
<path class="st3" d="M222,168h6c2.2,0,4-1.8,4-4l0,0c0-8,0-4-4-2h-6c-4-2-4-4-4,2l0,0C218,166.2,219.8,168,222,168z"/>
<path class="st3" d="M214,166L214,166c1.1,0,2-0.9,2-2v-6c0,0-0.9-2-2-2l0,0c-1.1,0-2,2-2,2s0,4.5,0,6C212,165.1,214,166,214,166z"
	/>
<path class="st3" d="M238,166L238,166c1.1,0,2-0.9,2-2v-6c0,0-0.9-2-2-2l0,0c-4,0-4,2-4,2l2,6C236,165.1,238,166,238,166z"/>
<path class="st0" d="M202,152c0,1.7,1.3,6,3,6s3-1.3,3-3s-0.3-5-2-5S202,150.3,202,152z"/>
<circle class="st0" cx="226" cy="186" r="4"/>
<path class="st4" d="M224,182c0,2.2,0.3,4,2,4s2-1.8,2-4s-1.3-4-3-4S224,179.8,224,182z"/>
<path class="st0" d="M148,160c0,11.6,6.2,18,14,18s14-6.4,14-18s-6.2-22-14-22S148,148.4,148,160z"/>
<path class="st1" d="M148,138c0,1.1,3.1,4,7,4s7-2.9,7-4s-3.1,0-7,0S148,136.9,148,138z"/>
<ellipse class="st1" cx="162" cy="137" rx="6" ry="3"/>
<ellipse class="st2" cx="165" cy="148" rx="1" ry="4"/>
<ellipse class="st2" cx="155" cy="148" rx="1" ry="4"/>
<path class="st2" d="M156,155c0,1.7,1.8,3,4,3s4-1.3,4-3s-1.8-1-4-1S156,153.3,156,155z"/>
<path class="st1" d="M148,160c0,11.6,6.2,18,14,18s14-6.4,14-18s-8.2,2-16,2S148,148.4,148,160z"/>
<path class="st3" d="M158,168h6c2.2,0,4-1.8,4-4l0,0c0-8,0-4-4-2h-6c-4-2-4-4-4,2l0,0C154,166.2,155.8,168,158,168z"/>
<path class="st3" d="M150,166L150,166c1.1,0,2-0.9,2-2v-6c0,0-0.9-2-2-2l0,0c-1.1,0-2,2-2,2s0,4.5,0,6C148,165.1,150,166,150,166z"
	/>
<path class="st3" d="M174,166L174,166c1.1,0,2-0.9,2-2v-6c0,0-0.9-2-2-2l0,0c-4,0-4,2-4,2l2,6C172,165.1,174,166,174,166z"/>
<path class="st0" d="M178,161c0,1.7,1.3,3,3,3s3-0.3,3-2s-1.3-4-3-4S178,159.3,178,161z"/>
<circle class="st0" cx="162" cy="186" r="4"/>
<path class="st4" d="M160,182c0,2.2,0.3,4,2,4s2-1.8,2-4s-1.3-4-3-4S160,179.8,160,182z"/>
<path class="st0" d="M242,163c0,1.7,1.3,3,3,3s3-0.3,3-2s-1.3-4-3-4S242,161.3,242,163z"/>
<path class="st0" d="M138,150c0,1.7,1.3,6,3,6s3-1.3,3-3s-0.3-5-2-5S138,148.3,138,150z"/>
<path class="st0" d="M84,160c0,11.6,6.2,18,14,18s14-6.4,14-18s-6.2-22-14-22S84,148.4,84,160z"/>
<path class="st1" d="M84,138c0,1.1,3.1,4,7,4s7-2.9,7-4s-3.1,0-7,0S84,136.9,84,138z"/>
<ellipse class="st1" cx="98" cy="137" rx="6" ry="3"/>
<ellipse class="st2" cx="101" cy="148" rx="1" ry="4"/>
<ellipse class="st2" cx="91" cy="148" rx="1" ry="4"/>
<path class="st2" d="M92,155c0,1.7,1.8,3,4,3s4-1.3,4-3s-1.8-1-4-1S92,153.3,92,155z"/>
<path class="st1" d="M84,160c0,11.6,6.2,18,14,18s14-6.4,14-18s-8.2,2-16,2S84,148.4,84,160z"/>
<path class="st3" d="M94,168h6c2.2,0,4-1.8,4-4l0,0c0-8,0-4-4-2h-6c-4-2-4-4-4,2l0,0C90,166.2,91.8,168,94,168z"/>
<path class="st3" d="M86,166L86,166c1.1,0,2-0.9,2-2v-6c0,0-0.9-2-2-2l0,0c-1.1,0-2,2-2,2s0,4.5,0,6C84,165.1,86,166,86,166z"/>
<path class="st3" d="M110,166L110,166c1.1,0,2-0.9,2-2v-6c0,0-0.9-2-2-2l0,0c-4,0-4,2-4,2l2,6C108,165.1,110,166,110,166z"/>
<path class="st0" d="M74,148c0,1.7,1.3,6,3,6s3-1.3,3-3s-0.3-5-2-5S74,146.3,74,148z"/>
<circle class="st0" cx="98" cy="186" r="4"/>
<path class="st4" d="M96,182c0,2.2,0.3,4,2,4s2-1.8,2-4s-1.3-4-3-4S96,179.8,96,182z"/>
<path class="st0" d="M20,160c0,11.6,6.2,18,14,18s14-6.4,14-18s-6.2-22-14-22S20,148.4,20,160z"/>
<path class="st1" d="M20,138c0,1.1,3.1,4,7,4s7-2.9,7-4s-3.1,0-7,0S20,136.9,20,138z"/>
<ellipse class="st1" cx="34" cy="137" rx="6" ry="3"/>
<ellipse class="st2" cx="37" cy="148" rx="1" ry="4"/>
<ellipse class="st2" cx="27" cy="148" rx="1" ry="4"/>
<path class="st2" d="M28,155c0,1.7,1.8,3,4,3s4-1.3,4-3s-1.8-1-4-1S28,153.3,28,155z"/>
<path class="st1" d="M20,160c0,11.6,6.2,18,14,18s14-6.4,14-18s-8.2,2-16,2S20,148.4,20,160z"/>
<path class="st3" d="M30,168h6c2.2,0,4-1.8,4-4l0,0c0-8,0-4-4-2h-6c-4-2-4-4-4,2l0,0C26,166.2,27.8,168,30,168z"/>
<path class="st3" d="M22,166L22,166c1.1,0,2-0.9,2-2v-6c0,0-0.9-2-2-2h0c-1.1,0-2,2-2,2s0,4.5,0,6C20,165.1,22,166,22,166z"/>
<path class="st3" d="M46,166L46,166c1.1,0,2-0.9,2-2v-6c0,0-0.9-2-2-2h0c-4,0-4,2-4,2l2,6C44,165.1,46,166,46,166z"/>
<path class="st0" d="M50,161c0,1.7,1.3,3,3,3s3-0.3,3-2s-1.3-4-3-4S50,159.3,50,161z"/>
<circle class="st0" cx="34" cy="186" r="4"/>
<path class="st4" d="M32,182c0,2.2,0.3,4,2,4s2-1.8,2-4s-1.3-4-3-4C31.3,178,32,179.8,32,182z"/>
<path class="st0" d="M114,159c0,1.7,1.3,3,3,3s3-0.3,3-2s-1.3-4-3-4S114,157.3,114,159z"/>
<path class="st0" d="M10,150c0,1.7,1.3,6,3,6s3-1.3,3-3s-0.3-5-2-5S10,148.3,10,150z"/>
<path class="st0" d="M46,224c0,11.6-6.2,18-14,18s-14-6.4-14-18s6.2-22,14-22S46,212.4,46,224z"/>
<path class="st1" d="M46,202c0,1.1-3.1,4-7,4s-7-2.9-7-4s3.1,0,7,0S46,200.9,46,202z"/>
<ellipse class="st1" cx="32" cy="201" rx="6" ry="3"/>
<ellipse class="st2" cx="29" cy="212" rx="1" ry="4"/>
<ellipse class="st2" cx="39" cy="212" rx="1" ry="4"/>
<path class="st2" d="M36,218c0,1.6,0.2,4-2,4s-2-0.4-2-2s-0.2-4,2-4S36,216.4,36,218z"/>
<path class="st1" d="M46,224c0,11.6-6.2,18-14,18s-14-6.4-14-18s8.2,2,16,2S46,212.4,46,224z"/>
<path class="st3" d="M36,232h-6c-2.2,0-4-1.8-4-4l0,0c0-8,0-4,4-2h6c4-2,4-4,4,2l0,0C40,230.2,38.2,232,36,232z"/>
<path class="st3" d="M44,230L44,230c-1.1,0-2-0.9-2-2v-6c0,0,0.9-2,2-2h0c1.1,0,2,2,2,2s0,4.5,0,6C46,229.1,44,230,44,230z"/>
<path class="st3" d="M20,230L20,230c-1.1,0-2-0.9-2-2v-6c0,0,0.9-2,2-2h0c4,0,4,2,4,2l-2,6C22,229.1,20,230,20,230z"/>
<g>
	<g>
		
			<rect x="45.6" y="216.3" transform="matrix(0.3697 0.9292 -0.9292 0.3697 234.5064 88.2671)" class="st5" width="13.1" height="1.3"/>
		<g>
			<g>
				<path class="st6" d="M51.2,208.9c-0.9,1.1-1.7,0.7-2.6-1.3c-0.6-1.3-1,1.9-0.3,3.2c0.6,1.2,1.8,1.8,2.6,1.3
					C51.7,211.6,51.9,208.2,51.2,208.9z"/>
			</g>
			<g>
				<path class="st7" d="M51.2,208.9c-0.9,1.1-1.7,0.7-2.6-1.3c-0.6-1.3-1,1.9-0.3,3.2c0.6,1.2,1.8,1.8,2.6,1.3
					C51.7,211.6,51.9,208.2,51.2,208.9z"/>
			</g>
		</g>
		<g>
			<g>
				<path class="st6" d="M55.5,222.5c-0.7-1.2-1.9-1.6-2.6-0.9c-0.7,0.7-0.6,4.2,0,3.3c0.8-1.2,1.6-1,2.6,0.9
					C56.1,226.9,56.2,223.6,55.5,222.5z"/>
			</g>
			<g>
				<path class="st7" d="M55.5,222.5c-0.7-1.2-1.9-1.6-2.6-0.9c-0.7,0.7-0.6,4.2,0,3.3c0.8-1.2,1.6-1,2.6,0.9
					C56.1,226.9,56.2,223.6,55.5,222.5z"/>
			</g>
		</g>
	</g>
	<path class="st0" d="M56,216c0,1.7-1.3,6-3,6s-3-1.3-3-3s0.3-5,2-5S56,214.3,56,216z"/>
</g>
<circle class="st0" cx="32" cy="250" r="4"/>
<path class="st4" d="M34,246c0,2.2-0.3,4-2,4c-1.7,0-2-1.8-2-4s1.3-4,3-4C34.7,242,34,243.8,34,246z"/>
<path class="st0" d="M16,227c0,1.7-1.3,3-3,3s-3-0.3-3-2s1.3-4,3-4S16,225.3,16,227z"/>
<path class="st0" d="M110,224c0,11.6-6.2,18-14,18s-14-6.4-14-18s6.2-22,14-22S110,212.4,110,224z"/>
<path class="st1" d="M110,202c0,1.1-3.1,4-7,4s-7-2.9-7-4s3.1,0,7,0S110,200.9,110,202z"/>
<ellipse class="st1" cx="96" cy="201" rx="6" ry="3"/>
<ellipse class="st2" cx="93" cy="212" rx="1" ry="4"/>
<ellipse class="st2" cx="103" cy="212" rx="1" ry="4"/>
<path class="st2" d="M100,218c0,1.6,0.2,4-2,4s-2-0.4-2-2s-0.2-4,2-4S100,216.4,100,218z"/>
<path class="st1" d="M110,224c0,11.6-6.2,18-14,18s-14-6.4-14-18s8.2,2,16,2S110,212.4,110,224z"/>
<path class="st3" d="M100,232h-6c-2.2,0-4-1.8-4-4l0,0c0-8,0-4,4-2h6c4-2,4-4,4,2l0,0C104,230.2,102.2,232,100,232z"/>
<path class="st3" d="M108,230L108,230c-1.1,0-2-0.9-2-2v-6c0,0,0.9-2,2-2l0,0c1.1,0,2,2,2,2s0,4.5,0,6C110,229.1,108,230,108,230z"
	/>
<path class="st3" d="M84,230L84,230c-1.1,0-2-0.9-2-2v-6c0,0,0.9-2,2-2l0,0c4,0,4,2,4,2l-2,6C86,229.1,84,230,84,230z"/>
<g>
	<g>
		
			<rect x="107.7" y="214.9" transform="matrix(0.5531 0.8331 -0.8331 0.5531 230.6441 1.1477)" class="st5" width="13.1" height="1.3"/>
		<g>
			<g>
				<path class="st6" d="M111.7,207.9c-0.7,1.2-1.6,1-2.8-0.7c-0.8-1.1-0.5,2.1,0.3,3.2c0.9,1.1,2.1,1.4,2.8,0.7
					C112.7,210.4,112.2,207,111.7,207.9z"/>
			</g>
			<g>
				<path class="st7" d="M111.7,207.9c-0.7,1.2-1.6,1-2.8-0.7c-0.8-1.1-0.5,2.1,0.3,3.2c0.9,1.1,2.1,1.4,2.8,0.7
					C112.7,210.4,112.2,207,111.7,207.9z"/>
			</g>
		</g>
		<g>
			<g>
				<path class="st6" d="M118.6,220.2c-0.9-1-2.2-1.1-2.8-0.3s0.2,4.2,0.6,3.2c0.6-1.4,1.4-1.3,2.8,0.3
					C120.1,224.5,119.6,221.2,118.6,220.2z"/>
			</g>
			<g>
				<path class="st7" d="M118.6,220.2c-0.9-1-2.2-1.1-2.8-0.3s0.2,4.2,0.6,3.2c0.6-1.4,1.4-1.3,2.8,0.3
					C120.1,224.5,119.6,221.2,118.6,220.2z"/>
			</g>
		</g>
	</g>
	<path class="st0" d="M117.8,213.8c0.3,1.6-0.1,6.1-1.7,6.5c-1.6,0.3-3.2-0.7-3.6-2.3c-0.3-1.6-0.7-5,0.9-5.3
		C115.1,212.3,117.4,212.2,117.8,213.8z"/>
</g>
<circle class="st0" cx="96" cy="250" r="4"/>
<path class="st4" d="M98,246c0,2.2-0.3,4-2,4s-2-1.8-2-4s1.3-4,3-4S98,243.8,98,246z"/>
<path class="st0" d="M80,227c0,1.7-1.3,3-3,3s-3-0.3-3-2s1.3-4,3-4S80,225.3,80,227z"/>
<path class="st0" d="M174,224c0,11.6-6.2,18-14,18s-14-6.4-14-18s6.2-22,14-22S174,212.4,174,224z"/>
<path class="st1" d="M174,202c0,1.1-3.1,4-7,4s-7-2.9-7-4s3.1,0,7,0S174,200.9,174,202z"/>
<ellipse class="st1" cx="160" cy="201" rx="6" ry="3"/>
<ellipse class="st2" cx="157" cy="212" rx="1" ry="4"/>
<ellipse class="st2" cx="167" cy="212" rx="1" ry="4"/>
<path class="st2" d="M164,218c0,1.6,0.2,4-2,4s-2-0.4-2-2s-0.2-4,2-4S164,216.4,164,218z"/>
<path class="st1" d="M174,224c0,11.6-6.2,18-14,18s-14-6.4-14-18s8.2,2,16,2S174,212.4,174,224z"/>
<path class="st3" d="M164,232h-6c-2.2,0-4-1.8-4-4l0,0c0-8,0-4,4-2h6c4-2,4-4,4,2l0,0C168,230.2,166.2,232,164,232z"/>
<path class="st3" d="M172,230L172,230c-1.1,0-2-0.9-2-2v-6c0,0,0.9-2,2-2l0,0c1.1,0,2,2,2,2s0,4.5,0,6C174,229.1,172,230,172,230z"
	/>
<path class="st3" d="M148,230L148,230c-1.1,0-2-0.9-2-2v-6c0,0,0.9-2,2-2l0,0c4,0,4,2,4,2l-2,6C150,229.1,148,230,148,230z"/>
<g>
	<g>
		
			<rect x="169.8" y="214.2" transform="matrix(0.8324 0.5541 -0.5541 0.8324 148.5879 -61.7111)" class="st5" width="13.1" height="1.3"/>
		<g>
			<g>
				<path class="st6" d="M171,208.7c-0.2,1.4-1,1.6-2.9,0.4c-1.2-0.7,0.3,2.1,1.5,2.8s2.5,0.5,2.9-0.4
					C172.9,210.6,171.1,207.7,171,208.7z"/>
			</g>
			<g>
				<path class="st7" d="M171,208.7c-0.2,1.4-1,1.6-2.9,0.4c-1.2-0.7,0.3,2.1,1.5,2.8s2.5,0.5,2.9-0.4
					C172.9,210.6,171.1,207.7,171,208.7z"/>
			</g>
		</g>
		<g>
			<g>
				<path class="st6" d="M182.2,217.4c-1.2-0.5-2.4-0.2-2.7,0.7s1.8,3.8,1.8,2.7c0-1.5,0.8-1.7,2.7-0.7
					C185.2,220.8,183.4,218,182.2,217.4z"/>
			</g>
			<g>
				<path class="st7" d="M182.2,217.4c-1.2-0.5-2.4-0.2-2.7,0.7s1.8,3.8,1.8,2.7c0-1.5,0.8-1.7,2.7-0.7
					C185.2,220.8,183.4,218,182.2,217.4z"/>
			</g>
		</g>
	</g>
	<path class="st0" d="M178.9,211.8c0.9,1.4,2.3,5.7,0.9,6.6c-1.4,0.9-3.2,0.6-4.2-0.8c-0.9-1.4-2.6-4.3-1.2-5.3
		S178,210.5,178.9,211.8z"/>
</g>
<circle class="st0" cx="160" cy="250" r="4"/>
<path class="st4" d="M162,246c0,2.2-0.3,4-2,4s-2-1.8-2-4s1.3-4,3-4S162,243.8,162,246z"/>
<path class="st0" d="M144,227c0,1.7-1.3,3-3,3s-3-0.3-3-2s1.3-4,3-4S144,225.3,144,227z"/>
<path class="st0" d="M238,224c0,11.6-6.2,18-14,18s-14-6.4-14-18s6.2-22,14-22S238,212.4,238,224z"/>
<path class="st1" d="M238,202c0,1.1-3.1,4-7,4s-7-2.9-7-4s3.1,0,7,0S238,200.9,238,202z"/>
<ellipse class="st1" cx="224" cy="201" rx="6" ry="3"/>
<ellipse class="st2" cx="221" cy="212" rx="1" ry="4"/>
<ellipse class="st2" cx="231" cy="212" rx="1" ry="4"/>
<path class="st2" d="M228,218c0,1.6,0.2,4-2,4s-2-0.4-2-2s-0.2-4,2-4S228,216.4,228,218z"/>
<path class="st1" d="M238,224c0,11.6-6.2,18-14,18s-14-6.4-14-18s8.2,2,16,2S238,212.4,238,224z"/>
<path class="st3" d="M228,232h-6c-2.2,0-4-1.8-4-4l0,0c0-8,0-4,4-2h6c4-2,4-4,4,2l0,0C232,230.2,230.2,232,228,232z"/>
<path class="st3" d="M236,230L236,230c-1.1,0-2-0.9-2-2v-6c0,0,0.9-2,2-2l0,0c1.1,0,2,2,2,2s0,4.5,0,6C238,229.1,236,230,236,230z"
	/>
<path class="st3" d="M212,230L212,230c-1.1,0-2-0.9-2-2v-6c0,0,0.9-2,2-2l0,0c4,0,4,2,4,2l-2,6C214,229.1,212,230,212,230z"/>
<g>
	<g>
		
			<rect x="233.6" y="212.4" transform="matrix(0.2426 0.9701 -0.9701 0.2426 388.5173 -71.6626)" class="st5" width="13.1" height="1.3"/>
		<g>
			<g>
				<path class="st6" d="M240.3,204.9c-1.1,0.9-1.8,0.5-2.4-1.6c-0.4-1.3-1.2,1.8-0.7,3.1s1.5,2,2.4,1.6
					C240.4,207.6,241.1,204.3,240.3,204.9z"/>
			</g>
			<g>
				<path class="st7" d="M240.3,204.9c-1.1,0.9-1.8,0.5-2.4-1.6c-0.4-1.3-1.2,1.8-0.7,3.1s1.5,2,2.4,1.6
					C240.4,207.6,241.1,204.3,240.3,204.9z"/>
			</g>
		</g>
		<g>
			<g>
				<path class="st6" d="M242.7,218.9c-0.6-1.2-1.7-1.8-2.5-1.2c-0.8,0.6-1.2,4-0.5,3.3c1-1.1,1.7-0.7,2.5,1.2
					C242.7,223.4,243.3,220.1,242.7,218.9z"/>
			</g>
			<g>
				<path class="st7" d="M242.7,218.9c-0.6-1.2-1.7-1.8-2.5-1.2c-0.8,0.6-1.2,4-0.5,3.3c1-1.1,1.7-0.7,2.5,1.2
					C242.7,223.4,243.3,220.1,242.7,218.9z"/>
			</g>
		</g>
	</g>
	<path class="st0" d="M244.1,212.5c-0.2,1.6-2.1,5.8-3.8,5.5c-1.6-0.2-2.8-1.7-2.6-3.4c0.2-1.6,1-4.9,2.6-4.7
		C242,210.2,244.3,210.9,244.1,212.5z"/>
</g>
<circle class="st0" cx="224" cy="250" r="4"/>
<path class="st4" d="M226,246c0,2.2-0.3,4-2,4s-2-1.8-2-4s1.3-4,3-4S226,243.8,226,246z"/>
<path class="st0" d="M208,227c0,1.7-1.3,3-3,3s-3-0.3-3-2s1.3-4,3-4S208,225.3,208,227z"/>
<path class="st0" d="M302,224c0,11.6-6.2,18-14,18s-14-6.4-14-18s6.2-22,14-22S302,212.4,302,224z"/>
<path class="st1" d="M302,202c0,1.1-3.1,4-7,4s-7-2.9-7-4s3.1,0,7,0S302,200.9,302,202z"/>
<ellipse class="st1" cx="288" cy="201" rx="6" ry="3"/>
<ellipse class="st2" cx="285" cy="212" rx="1" ry="4"/>
<ellipse class="st2" cx="295" cy="212" rx="1" ry="4"/>
<path class="st2" d="M292,218c0,1.6,0.2,4-2,4s-2-0.4-2-2s-0.2-4,2-4S292,216.4,292,218z"/>
<path class="st1" d="M302,224c0,11.6-6.2,18-14,18s-14-6.4-14-18s8.2,2,16,2S302,212.4,302,224z"/>
<path class="st3" d="M292,232h-6c-2.2,0-4-1.8-4-4l0,0c0-8,0-4,4-2h6c4-2,4-4,4,2l0,0C296,230.2,294.2,232,292,232z"/>
<path class="st3" d="M300,230L300,230c-1.1,0-2-0.9-2-2v-6c0,0,0.9-2,2-2l0,0c1.1,0,2,2,2,2s0,4.5,0,6C302,229.1,300,230,300,230z"
	/>
<path class="st3" d="M276,230L276,230c-1.1,0-2-0.9-2-2v-6c0,0,0.9-2,2-2l0,0c4,0,4,2,4,2l-2,6C278,229.1,276,230,276,230z"/>
<g>
	<g>
		
			<rect x="299.4" y="213" transform="matrix(-0.4199 0.9076 -0.9076 -0.4199 628.281 25.6902)" class="st5" width="13.1" height="1.3"/>
		<g>
			<g>
				<path class="st6" d="M311.1,207.4c-1.4,0-1.7-0.8-0.9-2.8c0.5-1.3-2.1,0.6-2.5,1.9c-0.5,1.3-0.1,2.5,0.9,2.8
					C309.5,209.6,312.1,207.4,311.1,207.4z"/>
			</g>
			<g>
				<path class="st7" d="M311.1,207.4c-1.4,0-1.7-0.8-0.9-2.8c0.5-1.3-2.1,0.6-2.5,1.9c-0.5,1.3-0.1,2.5,0.9,2.8
					C309.5,209.6,312.1,207.4,311.1,207.4z"/>
			</g>
		</g>
		<g>
			<g>
				<path class="st6" d="M303.1,217.3c-1-0.1-3.4,2.4-2.4,2.2c1.5-0.2,1.8,0.5,1.1,2.5c-0.4,1.3,2.1-0.9,2.4-2.2
					C304.6,218.5,304.1,217.4,303.1,217.3z"/>
			</g>
			<g>
				<path class="st7" d="M303.1,217.3c-1-0.1-3.4,2.4-2.4,2.2c1.5-0.2,1.8,0.5,1.1,2.5c-0.4,1.3,2.1-0.9,2.4-2.2
					C304.6,218.5,304.1,217.4,303.1,217.3z"/>
			</g>
		</g>
	</g>
	<path class="st0" d="M309.3,215.7c-1.2,1.1-5.3,3.2-6.4,2s-1.1-3.1,0.1-4.2c1.2-1.1,3.9-3.2,5-2
		C309.1,212.7,310.5,214.6,309.3,215.7z"/>
</g>
<circle class="st0" cx="288" cy="250" r="4"/>
<path class="st4" d="M290,246c0,2.2-0.3,4-2,4s-2-1.8-2-4s1.3-4,3-4S290,243.8,290,246z"/>
<path class="st0" d="M272,227c0,1.7-1.3,3-3,3s-3-0.3-3-2s1.3-4,3-4S272,225.3,272,227z"/>
<path class="st0" d="M366,224c0,11.6-6.2,18-14,18s-14-6.4-14-18s6.2-22,14-22S366,212.4,366,224z"/>
<path class="st1" d="M366,202c0,1.1-3.1,4-7,4s-7-2.9-7-4s3.1,0,7,0S366,200.9,366,202z"/>
<ellipse class="st1" cx="352" cy="201" rx="6" ry="3"/>
<ellipse class="st2" cx="349" cy="212" rx="1" ry="4"/>
<ellipse class="st2" cx="359" cy="212" rx="1" ry="4"/>
<path class="st2" d="M356,218c0,1.6,0.2,4-2,4s-2-0.4-2-2s-0.2-4,2-4S356,216.4,356,218z"/>
<path class="st1" d="M366,224c0,11.6-6.2,18-14,18s-14-6.4-14-18s8.2,2,16,2S366,212.4,366,224z"/>
<path class="st3" d="M356,232h-6c-2.2,0-4-1.8-4-4l0,0c0-8,0-4,4-2h6c4-2,4-4,4,2l0,0C360,230.2,358.2,232,356,232z"/>
<path class="st3" d="M364,230L364,230c-1.1,0-2-0.9-2-2v-6c0,0,0.9-2,2-2l0,0c1.1,0,2,2,2,2s0,4.5,0,6C366,229.1,364,230,364,230z"
	/>
<path class="st3" d="M340,230L340,230c-1.1,0-2-0.9-2-2v-6c0,0,0.9-2,2-2l0,0c4,0,4,2,4,2l-2,6C342,229.1,340,230,340,230z"/>
<g>
	<g>
		
			<rect x="365.2" y="216.3" transform="matrix(-0.8996 0.4368 -0.4368 -0.8996 800.8679 249.6578)" class="st5" width="13.1" height="1.3"/>
		<g>
			<g>
				<path class="st6" d="M377.6,212.6c-1.2,0.7-1.7,1.9-1.1,2.7c0.6,0.8,4,0.7,3.2,0.1c-1.1-0.9-0.8-1.7,1.1-2.7
					C382,212,378.7,211.9,377.6,212.6z"/>
			</g>
			<g>
				<path class="st7" d="M377.6,212.6c-1.2,0.7-1.7,1.9-1.1,2.7c0.6,0.8,4,0.7,3.2,0.1c-1.1-0.9-0.8-1.7,1.1-2.7
					C382,212,378.7,211.9,377.6,212.6z"/>
			</g>
		</g>
		<g>
			<g>
				<path class="st6" d="M367.2,217.9c-0.7-0.7-4.2-0.3-3.3,0.2c1.3,0.7,1.1,1.5-0.7,2.7c-1.2,0.7,2.2,0.6,3.3-0.2
					S367.9,218.6,367.2,217.9z"/>
			</g>
			<g>
				<path class="st7" d="M367.2,217.9c-0.7-0.7-4.2-0.3-3.3,0.2c1.3,0.7,1.1,1.5-0.7,2.7c-1.2,0.7,2.2,0.6,3.3-0.2
					S367.9,218.6,367.2,217.9z"/>
			</g>
		</g>
	</g>
	<path class="st0" d="M373,220.6c-1.7,0.1-6.1-0.9-6.2-2.6c-0.1-1.7,1.1-3.1,2.8-3.2s5,0,5.1,1.6C374.8,218.1,374.6,220.5,373,220.6
		z"/>
</g>
<circle class="st0" cx="352" cy="250" r="4"/>
<path class="st4" d="M354,246c0,2.2-0.3,4-2,4s-2-1.8-2-4s1.3-4,3-4S354,243.8,354,246z"/>
<path class="st0" d="M336,227c0,1.7-1.3,3-3,3s-3-0.3-3-2s1.3-4,3-4S336,225.3,336,227z"/>
<path class="st0" d="M430,224c0,11.6-6.2,18-14,18s-14-6.4-14-18s6.2-22,14-22S430,212.4,430,224z"/>
<path class="st1" d="M430,202c0,1.1-3.1,4-7,4s-7-2.9-7-4s3.1,0,7,0S430,200.9,430,202z"/>
<ellipse class="st1" cx="416" cy="201" rx="6" ry="3"/>
<ellipse class="st2" cx="413" cy="212" rx="1" ry="4"/>
<ellipse class="st2" cx="423" cy="212" rx="1" ry="4"/>
<path class="st2" d="M420,218c0,1.6,0.2,4-2,4s-2-0.4-2-2s-0.2-4,2-4S420,216.4,420,218z"/>
<path class="st1" d="M430,224c0,11.6-6.2,18-14,18s-14-6.4-14-18s8.2,2,16,2S430,212.4,430,224z"/>
<path class="st3" d="M420,232h-6c-2.2,0-4-1.8-4-4l0,0c0-8,0-4,4-2h6c4-2,4-4,4,2l0,0C424,230.2,422.2,232,420,232z"/>
<path class="st3" d="M428,230L428,230c-1.1,0-2-0.9-2-2v-6c0,0,0.9-2,2-2l0,0c1.1,0,2,2,2,2s0,4.5,0,6C430,229.1,428,230,428,230z"
	/>
<path class="st3" d="M404,230L404,230c-1.1,0-2-0.9-2-2v-6c0,0,0.9-2,2-2l0,0c4,0,4,2,4,2l-2,6C406,229.1,404,230,404,230z"/>
<g>
	<g>
		
			<rect x="429.3" y="216.4" transform="matrix(-0.5856 0.8106 -0.8106 -0.5856 867.0088 -9.232)" class="st5" width="13.1" height="1.3"/>
		<g>
			<g>
				<path class="st6" d="M442.1,211.9c-1.4-0.2-1.5-1.1-0.3-2.9c0.8-1.1-2.2,0.2-2.8,1.4c-0.7,1.2-0.5,2.5,0.3,2.9
					S443.1,212.1,442.1,211.9z"/>
			</g>
			<g>
				<path class="st7" d="M442.1,211.9c-1.4-0.2-1.5-1.1-0.3-2.9c0.8-1.1-2.2,0.2-2.8,1.4c-0.7,1.2-0.5,2.5,0.3,2.9
					S443.1,212.1,442.1,211.9z"/>
			</g>
		</g>
		<g>
			<g>
				<path class="st6" d="M432.4,220c-0.9-0.3-3.8,1.7-2.8,1.7c1.5,0,1.7,0.8,0.6,2.7c-0.7,1.2,2.2-0.5,2.8-1.7
					S433.3,220.3,432.4,220z"/>
			</g>
			<g>
				<path class="st7" d="M432.4,220c-0.9-0.3-3.8,1.7-2.8,1.7c1.5,0,1.7,0.8,0.6,2.7c-0.7,1.2,2.2-0.5,2.8-1.7
					S433.3,220.3,432.4,220z"/>
			</g>
		</g>
	</g>
	<path class="st0" d="M438.7,219.7c-1.4,0.9-5.8,2.1-6.7,0.7c-0.9-1.4-0.5-3.3,0.9-4.1s4.4-2.4,5.3-1
		C439.2,216.6,440.1,218.8,438.7,219.7z"/>
</g>
<circle class="st0" cx="416" cy="250" r="4"/>
<path class="st4" d="M418,246c0,2.2-0.3,4-2,4s-2-1.8-2-4s1.3-4,3-4S418,243.8,418,246z"/>
<path class="st0" d="M400,227c0,1.7-1.3,3-3,3s-3-0.3-3-2s1.3-4,3-4S400,225.3,400,227z"/>
<path class="st0" d="M494,224c0,11.6-6.2,18-14,18s-14-6.4-14-18s6.2-22,14-22S494,212.4,494,224z"/>
<path class="st1" d="M494,202c0,1.1-3.1,4-7,4s-7-2.9-7-4s3.1,0,7,0S494,200.9,494,202z"/>
<ellipse class="st1" cx="480" cy="201" rx="6" ry="3"/>
<ellipse class="st2" cx="477" cy="212" rx="1" ry="4"/>
<ellipse class="st2" cx="487" cy="212" rx="1" ry="4"/>
<path class="st2" d="M484,218c0,1.6,0.2,4-2,4s-2-0.4-2-2s-0.2-4,2-4S484,216.4,484,218z"/>
<path class="st1" d="M494,224c0,11.6-6.2,18-14,18s-14-6.4-14-18s8.2,2,16,2S494,212.4,494,224z"/>
<path class="st3" d="M484,232h-6c-2.2,0-4-1.8-4-4l0,0c0-8,0-4,4-2h6c4-2,4-4,4,2l0,0C488,230.2,486.2,232,484,232z"/>
<path class="st3" d="M492,230L492,230c-1.1,0-2-0.9-2-2v-6c0,0,0.9-2,2-2l0,0c1.1,0,2,2,2,2s0,4.5,0,6C494,229.1,492,230,492,230z"
	/>
<path class="st3" d="M468,230L468,230c-1.1,0-2-0.9-2-2v-6c0,0,0.9-2,2-2l0,0c4,0,4,2,4,2l-2,6C470,229.1,468,230,468,230z"/>
<g>
	<g>
		
			<rect x="493.6" y="216.3" transform="matrix(0.3697 0.9292 -0.9292 0.3697 516.8907 -327.9965)" class="st5" width="13.1" height="1.3"/>
		<g>
			<g>
				<path class="st6" d="M499.2,208.9c-0.9,1.1-1.7,0.7-2.6-1.3c-0.6-1.3-1,1.9-0.3,3.2c0.6,1.2,1.8,1.8,2.6,1.3
					C499.7,211.6,499.9,208.2,499.2,208.9z"/>
			</g>
			<g>
				<path class="st7" d="M499.2,208.9c-0.9,1.1-1.7,0.7-2.6-1.3c-0.6-1.3-1,1.9-0.3,3.2c0.6,1.2,1.8,1.8,2.6,1.3
					C499.7,211.6,499.9,208.2,499.2,208.9z"/>
			</g>
		</g>
		<g>
			<g>
				<path class="st6" d="M503.5,222.5c-0.7-1.2-1.9-1.6-2.6-0.9c-0.7,0.7-0.6,4.2,0,3.3c0.8-1.2,1.6-1,2.6,0.9
					C504.1,226.9,504.2,223.6,503.5,222.5z"/>
			</g>
			<g>
				<path class="st7" d="M503.5,222.5c-0.7-1.2-1.9-1.6-2.6-0.9c-0.7,0.7-0.6,4.2,0,3.3c0.8-1.2,1.6-1,2.6,0.9
					C504.1,226.9,504.2,223.6,503.5,222.5z"/>
			</g>
		</g>
	</g>
	<path class="st0" d="M504,216c0,1.7-1.3,6-3,6s-3-1.3-3-3s0.3-5,2-5S504,214.3,504,216z"/>
</g>
<circle class="st0" cx="480" cy="250" r="4"/>
<path class="st4" d="M482,246c0,2.2-0.3,4-2,4s-2-1.8-2-4s1.3-4,3-4S482,243.8,482,246z"/>
<path class="st0" d="M464,227c0,1.7-1.3,3-3,3s-3-0.3-3-2s1.3-4,3-4S464,225.3,464,227z"/>
<path class="st0" d="M468,288c0,11.6,6.2,18,14,18s14-6.4,14-18s-6.2-22-14-22S468,276.4,468,288z"/>
<path class="st1" d="M468,266c0,1.1,3.1,4,7,4s7-2.9,7-4s-3.1,0-7,0S468,264.9,468,266z"/>
<ellipse class="st1" cx="482" cy="265" rx="6" ry="3"/>
<ellipse class="st2" cx="485" cy="276" rx="1" ry="4"/>
<ellipse class="st2" cx="475" cy="276" rx="1" ry="4"/>
<path class="st2" d="M478,282c0,1.6-0.2,4,2,4s2-0.4,2-2s0.2-4-2-4S478,280.4,478,282z"/>
<path class="st1" d="M468,288c0,11.6,6.2,18,14,18s14-6.4,14-18s-8.2,2-16,2S468,276.4,468,288z"/>
<path class="st3" d="M478,296h6c2.2,0,4-1.8,4-4l0,0c0-8,0-4-4-2h-6c-4-2-4-4-4,2l0,0C474,294.2,475.8,296,478,296z"/>
<path class="st3" d="M470,294L470,294c1.1,0,2-0.9,2-2v-6c0,0-0.9-2-2-2l0,0c-1.1,0-2,2-2,2s0,4.5,0,6C468,293.1,470,294,470,294z"
	/>
<path class="st3" d="M494,294L494,294c1.1,0,2-0.9,2-2v-6c0,0-0.9-2-2-2l0,0c-4,0-4,2-4,2l2,6C492,293.1,494,294,494,294z"/>
<g>
	<g>
		
			<rect x="455.2" y="280.3" transform="matrix(-0.3697 0.9292 -0.9292 -0.3697 893.5956 -44.2421)" class="st5" width="13.1" height="1.3"/>
		<g>
			<g>
				<path class="st6" d="M465.4,271.7c-0.9,2-1.7,2.3-2.6,1.3c-0.7-0.7-0.5,2.6,0.3,3.2c0.8,0.5,2,0,2.6-1.3
					C466.3,273.6,465.9,270.4,465.4,271.7z"/>
			</g>
			<g>
				<path class="st7" d="M465.4,271.7c-0.9,2-1.7,2.3-2.6,1.3c-0.7-0.7-0.5,2.6,0.3,3.2c0.8,0.5,2,0,2.6-1.3
					C466.3,273.6,465.9,270.4,465.4,271.7z"/>
			</g>
		</g>
		<g>
			<g>
				<path class="st6" d="M461.1,285.5c-0.7-0.7-1.9-0.3-2.6,0.9s-0.6,4.5,0,3.3c1-1.9,1.8-2.1,2.6-0.9
					C461.7,289.7,461.8,286.2,461.1,285.5z"/>
			</g>
			<g>
				<path class="st7" d="M461.1,285.5c-0.7-0.7-1.9-0.3-2.6,0.9s-0.6,4.5,0,3.3c1-1.9,1.8-2.1,2.6-0.9
					C461.7,289.7,461.8,286.2,461.1,285.5z"/>
			</g>
		</g>
	</g>
	<path class="st0" d="M458,280c0,1.7,1.3,6,3,6s3-1.3,3-3s-0.3-5-2-5S458,278.3,458,280z"/>
</g>
<circle class="st0" cx="482" cy="314" r="4"/>
<path class="st4" d="M480,310c0,2.2,0.3,4,2,4s2-1.8,2-4s-1.3-4-3-4S480,307.8,480,310z"/>
<path class="st0" d="M498,291c0,1.7,1.3,3,3,3s3-0.3,3-2s-1.3-4-3-4S498,289.3,498,291z"/>
<path class="st0" d="M404,288c0,11.6,6.2,18,14,18s14-6.4,14-18s-6.2-22-14-22S404,276.4,404,288z"/>
<path class="st1" d="M404,266c0,1.1,3.1,4,7,4s7-2.9,7-4s-3.1,0-7,0S404,264.9,404,266z"/>
<ellipse class="st1" cx="418" cy="265" rx="6" ry="3"/>
<ellipse class="st2" cx="421" cy="276" rx="1" ry="4"/>
<ellipse class="st2" cx="411" cy="276" rx="1" ry="4"/>
<path class="st2" d="M414,282c0,1.6-0.2,4,2,4s2-0.4,2-2s0.2-4-2-4S414,280.4,414,282z"/>
<path class="st1" d="M404,288c0,11.6,6.2,18,14,18s14-6.4,14-18s-8.2,2-16,2S404,276.4,404,288z"/>
<path class="st3" d="M414,296h6c2.2,0,4-1.8,4-4l0,0c0-8,0-4-4-2h-6c-4-2-4-4-4,2l0,0C410,294.2,411.8,296,414,296z"/>
<path class="st3" d="M406,294L406,294c1.1,0,2-0.9,2-2v-6c0,0-0.9-2-2-2l0,0c-1.1,0-2,2-2,2s0,4.5,0,6C404,293.1,406,294,406,294z"
	/>
<path class="st3" d="M430,294L430,294c1.1,0,2-0.9,2-2v-6c0,0-0.9-2-2-2l0,0c-4,0-4,2-4,2l2,6C428,293.1,430,294,430,294z"/>
<g>
	<g>
		
			<rect x="393.2" y="278.9" transform="matrix(-0.5531 0.8331 -0.8331 -0.5531 853.7338 101.1057)" class="st5" width="13.1" height="1.3"/>
		<g>
			<g>
				<path class="st6" d="M405.1,271.2c-1.2,1.7-2.1,1.9-2.8,0.7c-0.5-0.9-1,2.5-0.3,3.2c0.7,0.7,1.9,0.4,2.8-0.7
					C405.7,273.3,405.9,270.1,405.1,271.2z"/>
			</g>
			<g>
				<path class="st7" d="M405.1,271.2c-1.2,1.7-2.1,1.9-2.8,0.7c-0.5-0.9-1,2.5-0.3,3.2c0.7,0.7,1.9,0.4,2.8-0.7
					C405.7,273.3,405.9,270.1,405.1,271.2z"/>
			</g>
		</g>
		<g>
			<g>
				<path class="st6" d="M398.1,283.9c-0.6-0.8-1.8-0.6-2.8,0.3s-1.5,4.3-0.6,3.2c1.4-1.6,2.2-1.7,2.8-0.3
					C397.9,288.1,398.7,284.7,398.1,283.9z"/>
			</g>
			<g>
				<path class="st7" d="M398.1,283.9c-0.6-0.8-1.8-0.6-2.8,0.3s-1.5,4.3-0.6,3.2c1.4-1.6,2.2-1.7,2.8-0.3
					C397.9,288.1,398.7,284.7,398.1,283.9z"/>
			</g>
		</g>
	</g>
	<path class="st0" d="M396.2,277.8c-0.3,1.6,0.1,6.1,1.7,6.5c1.6,0.3,3.2-0.7,3.6-2.3c0.3-1.6,0.7-5-0.9-5.3
		C398.9,276.3,396.6,276.2,396.2,277.8z"/>
</g>
<circle class="st0" cx="418" cy="314" r="4"/>
<path class="st4" d="M416,310c0,2.2,0.3,4,2,4s2-1.8,2-4s-1.3-4-3-4S416,307.8,416,310z"/>
<path class="st0" d="M434,291c0,1.7,1.3,3,3,3s3-0.3,3-2s-1.3-4-3-4S434,289.3,434,291z"/>
<path class="st0" d="M340,288c0,11.6,6.2,18,14,18s14-6.4,14-18s-6.2-22-14-22S340,276.4,340,288z"/>
<path class="st1" d="M340,266c0,1.1,3.1,4,7,4s7-2.9,7-4s-3.1,0-7,0S340,264.9,340,266z"/>
<ellipse class="st1" cx="354" cy="265" rx="6" ry="3"/>
<ellipse class="st2" cx="357" cy="276" rx="1" ry="4"/>
<ellipse class="st2" cx="347" cy="276" rx="1" ry="4"/>
<path class="st2" d="M350,282c0,1.6-0.2,4,2,4s2-0.4,2-2s0.2-4-2-4S350,280.4,350,282z"/>
<path class="st1" d="M340,288c0,11.6,6.2,18,14,18s14-6.4,14-18s-8.2,2-16,2S340,276.4,340,288z"/>
<path class="st3" d="M350,296h6c2.2,0,4-1.8,4-4l0,0c0-8,0-4-4-2h-6c-4-2-4-4-4,2l0,0C346,294.2,347.8,296,350,296z"/>
<path class="st3" d="M342,294L342,294c1.1,0,2-0.9,2-2v-6c0,0-0.9-2-2-2l0,0c-1.1,0-2,2-2,2s0,4.5,0,6C340,293.1,342,294,342,294z"
	/>
<path class="st3" d="M366,294L366,294c1.1,0,2-0.9,2-2v-6c0,0-0.9-2-2-2l0,0c-4,0-4,2-4,2l2,6C364,293.1,366,294,366,294z"/>
<g>
	<g>
		
			<rect x="331.1" y="278.2" transform="matrix(-0.8324 0.5541 -0.5541 -0.8324 773.2665 323.7827)" class="st5" width="13.1" height="1.3"/>
		<g>
			<g>
				<path class="st6" d="M345.9,273.2c-1.8,1.1-2.7,1-2.9-0.4c-0.1-1-1.9,1.9-1.5,2.8c0.4,0.9,1.6,1.1,2.9,0.4
					S347.1,272.5,345.9,273.2z"/>
			</g>
			<g>
				<path class="st7" d="M345.9,273.2c-1.8,1.1-2.7,1-2.9-0.4c-0.1-1-1.9,1.9-1.5,2.8c0.4,0.9,1.6,1.1,2.9,0.4
					S347.1,272.5,345.9,273.2z"/>
			</g>
		</g>
		<g>
			<g>
				<path class="st6" d="M334.5,282.2c-0.2-1-1.4-1.3-2.7-0.7c-1.2,0.5-3.1,3.4-1.8,2.7c1.9-1,2.7-0.7,2.7,0.7
					C332.7,286,334.7,283.1,334.5,282.2z"/>
			</g>
			<g>
				<path class="st7" d="M334.5,282.2c-0.2-1-1.4-1.3-2.7-0.7c-1.2,0.5-3.1,3.4-1.8,2.7c1.9-1,2.7-0.7,2.7,0.7
					C332.7,286,334.7,283.1,334.5,282.2z"/>
			</g>
		</g>
	</g>
	<path class="st0" d="M335.1,275.8c-0.9,1.4-2.3,5.7-0.9,6.6c1.4,0.9,3.2,0.6,4.2-0.8c0.9-1.4,2.6-4.3,1.2-5.3
		C338.2,275.5,336,274.5,335.1,275.8z"/>
</g>
<circle class="st0" cx="354" cy="314" r="4"/>
<path class="st4" d="M352,310c0,2.2,0.3,4,2,4s2-1.8,2-4s-1.3-4-3-4S352,307.8,352,310z"/>
<path class="st0" d="M370,291c0,1.7,1.3,3,3,3s3-0.3,3-2s-1.3-4-3-4S370,289.3,370,291z"/>
<path class="st0" d="M276,288c0,11.6,6.2,18,14,18s14-6.4,14-18s-6.2-22-14-22S276,276.4,276,288z"/>
<path class="st1" d="M276,266c0,1.1,3.1,4,7,4s7-2.9,7-4s-3.1,0-7,0S276,264.9,276,266z"/>
<ellipse class="st1" cx="290" cy="265" rx="6" ry="3"/>
<ellipse class="st2" cx="293" cy="276" rx="1" ry="4"/>
<ellipse class="st2" cx="283" cy="276" rx="1" ry="4"/>
<path class="st2" d="M286,282c0,1.6-0.2,4,2,4s2-0.4,2-2s0.2-4-2-4S286,280.4,286,282z"/>
<path class="st1" d="M276,288c0,11.6,6.2,18,14,18s14-6.4,14-18s-8.2,2-16,2S276,276.4,276,288z"/>
<path class="st3" d="M286,296h6c2.2,0,4-1.8,4-4l0,0c0-8,0-4-4-2h-6c-4-2-4-4-4,2l0,0C282,294.2,283.8,296,286,296z"/>
<path class="st3" d="M278,294L278,294c1.1,0,2-0.9,2-2v-6c0,0-0.9-2-2-2l0,0c-1.1,0-2,2-2,2s0,4.5,0,6C276,293.1,278,294,278,294z"
	/>
<path class="st3" d="M302,294L302,294c1.1,0,2-0.9,2-2v-6c0,0-0.9-2-2-2l0,0c-4,0-4,2-4,2l2,6C300,293.1,302,294,302,294z"/>
<g>
	<g>
		
			<rect x="267.3" y="276.4" transform="matrix(-0.2426 0.9701 -0.9701 -0.2426 609.0142 78.5547)" class="st5" width="13.1" height="1.3"/>
		<g>
			<g>
				<path class="st6" d="M276.1,267.3c-0.6,2.1-1.3,2.5-2.4,1.6c-0.8-0.7-0.1,2.7,0.7,3.1c0.9,0.4,2-0.3,2.4-1.6
					S276.5,266,276.1,267.3z"/>
			</g>
			<g>
				<path class="st7" d="M276.1,267.3c-0.6,2.1-1.3,2.5-2.4,1.6c-0.8-0.7-0.1,2.7,0.7,3.1c0.9,0.4,2-0.3,2.4-1.6
					S276.5,266,276.1,267.3z"/>
			</g>
		</g>
		<g>
			<g>
				<path class="st6" d="M273.8,281.6c-0.8-0.6-1.9,0-2.5,1.2c-0.6,1.2,0,4.5,0.5,3.3c0.7-2,1.5-2.3,2.5-1.2
					C274.9,285.7,274.6,282.2,273.8,281.6z"/>
			</g>
			<g>
				<path class="st7" d="M273.8,281.6c-0.8-0.6-1.9,0-2.5,1.2c-0.6,1.2,0,4.5,0.5,3.3c0.7-2,1.5-2.3,2.5-1.2
					C274.9,285.7,274.6,282.2,273.8,281.6z"/>
			</g>
		</g>
	</g>
	<path class="st0" d="M269.9,276.5c0.2,1.6,2.1,5.8,3.8,5.5s2.8-1.7,2.6-3.4c-0.2-1.6-1-4.9-2.6-4.7
		C272,274.2,269.7,274.9,269.9,276.5z"/>
</g>
<circle class="st0" cx="290" cy="314" r="4"/>
<path class="st4" d="M288,310c0,2.2,0.3,4,2,4s2-1.8,2-4s-1.3-4-3-4S288,307.8,288,310z"/>
<path class="st0" d="M306,291c0,1.7,1.3,3,3,3s3-0.3,3-2s-1.3-4-3-4S306,289.3,306,291z"/>
<path class="st0" d="M212,288c0,11.6,6.2,18,14,18s14-6.4,14-18s-6.2-22-14-22S212,276.4,212,288z"/>
<path class="st1" d="M212,266c0,1.1,3.1,4,7,4s7-2.9,7-4s-3.1,0-7,0S212,264.9,212,266z"/>
<ellipse class="st1" cx="226" cy="265" rx="6" ry="3"/>
<ellipse class="st2" cx="229" cy="276" rx="1" ry="4"/>
<ellipse class="st2" cx="219" cy="276" rx="1" ry="4"/>
<path class="st2" d="M222,282c0,1.6-0.2,4,2,4s2-0.4,2-2s0.2-4-2-4S222,280.4,222,282z"/>
<path class="st1" d="M212,288c0,11.6,6.2,18,14,18s14-6.4,14-18s-8.2,2-16,2S212,276.4,212,288z"/>
<path class="st3" d="M222,296h6c2.2,0,4-1.8,4-4l0,0c0-8,0-4-4-2h-6c-4-2-4-4-4,2l0,0C218,294.2,219.8,296,222,296z"/>
<path class="st3" d="M214,294L214,294c1.1,0,2-0.9,2-2v-6c0,0-0.9-2-2-2l0,0c-1.1,0-2,2-2,2s0,4.5,0,6C212,293.1,214,294,214,294z"
	/>
<path class="st3" d="M238,294L238,294c1.1,0,2-0.9,2-2v-6c0,0-0.9-2-2-2l0,0c-4,0-4,2-4,2l2,6C236,293.1,238,294,238,294z"/>
<g>
	<g>
		
			<rect x="201.5" y="277" transform="matrix(0.4199 0.9076 -0.9076 0.4199 372.6985 -27.7685)" class="st5" width="13.1" height="1.3"/>
		<g>
			<g>
				<path class="st6" d="M206.3,270.6c-0.5-1.3-3.1-3.2-2.5-1.9c0.8,2,0.5,2.8-0.9,2.8c-1,0,1.6,2.2,2.5,1.9
					C206.4,273.1,206.7,271.9,206.3,270.6z"/>
			</g>
			<g>
				<path class="st7" d="M206.3,270.6c-0.5-1.3-3.1-3.2-2.5-1.9c0.8,2,0.5,2.8-0.9,2.8c-1,0,1.6,2.2,2.5,1.9
					C206.4,273.1,206.7,271.9,206.3,270.6z"/>
			</g>
		</g>
		<g>
			<g>
				<path class="st6" d="M210.9,281.3c-1,0.1-1.5,1.2-1.1,2.5c0.3,1.3,2.8,3.5,2.4,2.2c-0.7-2-0.3-2.8,1.1-2.5
					C214.4,283.7,211.9,281.2,210.9,281.3z"/>
			</g>
			<g>
				<path class="st7" d="M210.9,281.3c-1,0.1-1.5,1.2-1.1,2.5c0.3,1.3,2.8,3.5,2.4,2.2c-0.7-2-0.3-2.8,1.1-2.5
					C214.4,283.7,211.9,281.2,210.9,281.3z"/>
			</g>
		</g>
	</g>
	<path class="st0" d="M204.7,279.7c1.2,1.1,5.3,3.2,6.4,2c1.1-1.2,1.1-3.1-0.1-4.2s-3.9-3.2-5-2S203.5,278.6,204.7,279.7z"/>
</g>
<circle class="st0" cx="226" cy="314" r="4"/>
<path class="st4" d="M224,310c0,2.2,0.3,4,2,4s2-1.8,2-4s-1.3-4-3-4S224,307.8,224,310z"/>
<path class="st0" d="M242,291c0,1.7,1.3,3,3,3s3-0.3,3-2s-1.3-4-3-4S242,289.3,242,291z"/>
<path class="st0" d="M148,288c0,11.6,6.2,18,14,18s14-6.4,14-18s-6.2-22-14-22S148,276.4,148,288z"/>
<path class="st1" d="M148,266c0,1.1,3.1,4,7,4s7-2.9,7-4s-3.1,0-7,0S148,264.9,148,266z"/>
<ellipse class="st1" cx="162" cy="265" rx="6" ry="3"/>
<ellipse class="st2" cx="165" cy="276" rx="1" ry="4"/>
<ellipse class="st2" cx="155" cy="276" rx="1" ry="4"/>
<path class="st2" d="M158,282c0,1.6-0.2,4,2,4s2-0.4,2-2s0.2-4-2-4S158,280.4,158,282z"/>
<path class="st1" d="M148,288c0,11.6,6.2,18,14,18s14-6.4,14-18s-8.2,2-16,2S148,276.4,148,288z"/>
<path class="st3" d="M158,296h6c2.2,0,4-1.8,4-4l0,0c0-8,0-4-4-2h-6c-4-2-4-4-4,2l0,0C154,294.2,155.8,296,158,296z"/>
<path class="st3" d="M150,294L150,294c1.1,0,2-0.9,2-2v-6c0,0-0.9-2-2-2l0,0c-1.1,0-2,2-2,2s0,4.5,0,6C148,293.1,150,294,150,294z"
	/>
<path class="st3" d="M174,294L174,294c1.1,0,2-0.9,2-2v-6c0,0-0.9-2-2-2l0,0c-4,0-4,2-4,2l2,6C172,293.1,174,294,174,294z"/>
<g>
	<g>
		
			<rect x="135.7" y="280.3" transform="matrix(0.8996 0.4368 -0.4368 0.8996 136.9931 -33.9289)" class="st5" width="13.1" height="1.3"/>
		<g>
			<g>
				<path class="st6" d="M136.4,276.6c-1.2-0.7-4.4-0.6-3.2,0.1c1.9,1,2.2,1.8,1.1,2.7c-0.8,0.6,2.6,0.7,3.2-0.1
					C138.1,278.5,137.6,277.3,136.4,276.6z"/>
			</g>
			<g>
				<path class="st7" d="M136.4,276.6c-1.2-0.7-4.4-0.6-3.2,0.1c1.9,1,2.2,1.8,1.1,2.7c-0.8,0.6,2.6,0.7,3.2-0.1
					C138.1,278.5,137.6,277.3,136.4,276.6z"/>
			</g>
		</g>
		<g>
			<g>
				<path class="st6" d="M150.8,284.8c-1.8-1.1-2-1.9-0.7-2.7c0.9-0.5-2.6-0.9-3.3-0.2s-0.4,1.9,0.7,2.7S151.9,285.6,150.8,284.8z"
					/>
			</g>
			<g>
				<path class="st7" d="M150.8,284.8c-1.8-1.1-2-1.9-0.7-2.7c0.9-0.5-2.6-0.9-3.3-0.2s-0.4,1.9,0.7,2.7S151.9,285.6,150.8,284.8z"
					/>
			</g>
		</g>
	</g>
	<path class="st0" d="M141,284.6c1.7,0.1,6.1-0.9,6.2-2.6s-1.1-3.1-2.8-3.2c-1.7-0.1-5,0-5.1,1.6C139.2,282.1,139.4,284.5,141,284.6
		z"/>
</g>
<circle class="st0" cx="162" cy="314" r="4"/>
<path class="st4" d="M160,310c0,2.2,0.3,4,2,4s2-1.8,2-4s-1.3-4-3-4S160,307.8,160,310z"/>
<path class="st0" d="M178,291c0,1.7,1.3,3,3,3s3-0.3,3-2s-1.3-4-3-4S178,289.3,178,291z"/>
<path class="st0" d="M84,288c0,11.6,6.2,18,14,18s14-6.4,14-18s-6.2-22-14-22S84,276.4,84,288z"/>
<path class="st1" d="M84,266c0,1.1,3.1,4,7,4s7-2.9,7-4s-3.1,0-7,0S84,264.9,84,266z"/>
<ellipse class="st1" cx="98" cy="265" rx="6" ry="3"/>
<ellipse class="st2" cx="101" cy="276" rx="1" ry="4"/>
<ellipse class="st2" cx="91" cy="276" rx="1" ry="4"/>
<path class="st2" d="M94,282c0,1.6-0.2,4,2,4s2-0.4,2-2s0.2-4-2-4S94,280.4,94,282z"/>
<path class="st1" d="M84,288c0,11.6,6.2,18,14,18s14-6.4,14-18s-8.2,2-16,2S84,276.4,84,288z"/>
<path class="st3" d="M94,296h6c2.2,0,4-1.8,4-4l0,0c0-8,0-4-4-2h-6c-4-2-4-4-4,2l0,0C90,294.2,91.8,296,94,296z"/>
<path class="st3" d="M86,294L86,294c1.1,0,2-0.9,2-2v-6c0,0-0.9-2-2-2l0,0c-1.1,0-2,2-2,2s0,4.5,0,6C84,293.1,86,294,86,294z"/>
<path class="st3" d="M110,294L110,294c1.1,0,2-0.9,2-2v-6c0,0-0.9-2-2-2l0,0c-4,0-4,2-4,2l2,6C108,293.1,110,294,110,294z"/>
<g>
	<g>
		
			<rect x="71.6" y="280.4" transform="matrix(0.5856 0.8106 -0.8106 0.5856 260.1739 53.1197)" class="st5" width="13.1" height="1.3"/>
		<g>
			<g>
				<path class="st6" d="M75,274.4c-0.7-1.2-3.6-2.6-2.8-1.4c1.2,1.8,1.1,2.6-0.3,2.9c-1,0.2,2,1.8,2.8,1.4S75.7,275.6,75,274.4z"/>
			</g>
			<g>
				<path class="st7" d="M75,274.4c-0.7-1.2-3.6-2.6-2.8-1.4c1.2,1.8,1.1,2.6-0.3,2.9c-1,0.2,2,1.8,2.8,1.4S75.7,275.6,75,274.4z"/>
			</g>
		</g>
		<g>
			<g>
				<path class="st6" d="M84.4,285.8c1,0-1.8-2-2.8-1.7s-1.2,1.5-0.6,2.7s3.5,2.9,2.8,1.7C82.7,286.6,82.9,285.8,84.4,285.8z"/>
			</g>
			<g>
				<path class="st7" d="M84.4,285.8c1,0-1.8-2-2.8-1.7s-1.2,1.5-0.6,2.7s3.5,2.9,2.8,1.7C82.7,286.6,82.9,285.8,84.4,285.8z"/>
			</g>
		</g>
	</g>
	<path class="st0" d="M75.3,283.7c1.4,0.9,5.8,2.1,6.7,0.7s0.5-3.3-0.9-4.1c-1.4-0.9-4.4-2.4-5.3-1
		C74.8,280.6,73.9,282.8,75.3,283.7z"/>
</g>
<circle class="st0" cx="98" cy="314" r="4"/>
<path class="st4" d="M96,310c0,2.2,0.3,4,2,4s2-1.8,2-4s-1.3-4-3-4S96,307.8,96,310z"/>
<path class="st0" d="M114,291c0,1.7,1.3,3,3,3s3-0.3,3-2s-1.3-4-3-4S114,289.3,114,291z"/>
<path class="st0" d="M20,288c0,11.6,6.2,18,14,18s14-6.4,14-18s-6.2-22-14-22S20,276.4,20,288z"/>
<path class="st1" d="M20,266c0,1.1,3.1,4,7,4s7-2.9,7-4s-3.1,0-7,0S20,264.9,20,266z"/>
<ellipse class="st1" cx="34" cy="265" rx="6" ry="3"/>
<ellipse class="st2" cx="37" cy="276" rx="1" ry="4"/>
<ellipse class="st2" cx="27" cy="276" rx="1" ry="4"/>
<path class="st2" d="M30,282c0,1.6-0.2,4,2,4s2-0.4,2-2s0.2-4-2-4S30,280.4,30,282z"/>
<path class="st1" d="M20,288c0,11.6,6.2,18,14,18s14-6.4,14-18s-8.2,2-16,2S20,276.4,20,288z"/>
<path class="st3" d="M30,296h6c2.2,0,4-1.8,4-4l0,0c0-8,0-4-4-2h-6c-4-2-4-4-4,2l0,0C26,294.2,27.8,296,30,296z"/>
<path class="st3" d="M22,294L22,294c1.1,0,2-0.9,2-2v-6c0,0-0.9-2-2-2h0c-1.1,0-2,2-2,2s0,4.5,0,6C20,293.1,22,294,22,294z"/>
<path class="st3" d="M46,294L46,294c1.1,0,2-0.9,2-2v-6c0,0-0.9-2-2-2h0c-4,0-4,2-4,2l2,6C44,293.1,46,294,46,294z"/>
<g>
	<g>
		
			<rect x="7.2" y="280.3" transform="matrix(-0.3697 0.9292 -0.9292 -0.3697 279.9799 372.0215)" class="st5" width="13.1" height="1.3"/>
		<g>
			<g>
				<path class="st6" d="M17.4,271.7c-0.9,2-1.7,2.3-2.6,1.3c-0.7-0.7-0.5,2.6,0.3,3.2c0.8,0.5,2,0,2.6-1.3
					C18.3,273.6,17.9,270.4,17.4,271.7z"/>
			</g>
			<g>
				<path class="st7" d="M17.4,271.7c-0.9,2-1.7,2.3-2.6,1.3c-0.7-0.7-0.5,2.6,0.3,3.2c0.8,0.5,2,0,2.6-1.3
					C18.3,273.6,17.9,270.4,17.4,271.7z"/>
			</g>
		</g>
		<g>
			<g>
				<path class="st6" d="M13.1,285.5c-0.7-0.7-1.9-0.3-2.6,0.9s-0.6,4.5,0,3.3c1-1.9,1.8-2.1,2.6-0.9
					C13.7,289.7,13.8,286.2,13.1,285.5z"/>
			</g>
			<g>
				<path class="st7" d="M13.1,285.5c-0.7-0.7-1.9-0.3-2.6,0.9s-0.6,4.5,0,3.3c1-1.9,1.8-2.1,2.6-0.9
					C13.7,289.7,13.8,286.2,13.1,285.5z"/>
			</g>
		</g>
	</g>
	<path class="st0" d="M10,280c0,1.7,1.3,6,3,6s3-1.3,3-3s-0.3-5-2-5S10,278.3,10,280z"/>
</g>
<circle class="st0" cx="34" cy="314" r="4"/>
<path class="st4" d="M32,310c0,2.2,0.3,4,2,4s2-1.8,2-4s-1.3-4-3-4C31.3,306,32,307.8,32,310z"/>
<path class="st0" d="M50,291c0,1.7,1.3,3,3,3s3-0.3,3-2s-1.3-4-3-4S50,289.3,50,291z"/>
<path class="st1" d="M28,328.5c0,1.1,3.1,4,7,4c3.9,0,7-2.9,7-4c0-1.1-3.1,0-7,0C31.1,328.5,28,327.4,28,328.5z"/>
<path class="st0" d="M20,352c0,11.6,6.2,18,14,18s14-6.4,14-18s-6.2-22-14-22S20,340.4,20,352z"/>
<ellipse class="st1" cx="34" cy="329" rx="6" ry="3"/>
<path class="st1" d="M20,352c0,11.6,6.2,18,14,18s14-6.4,14-18s-8.2,2-16,2S20,340.4,20,352z"/>
<path class="st3" d="M30,360h6c2.2,0,4-1.8,4-4l0,0c0-8,0-4-4-2h-6c-4-2-4-4-4,2l0,0C26,358.2,27.8,360,30,360z"/>
<path class="st3" d="M22,358L22,358c1.1,0,2-0.9,2-2v-6c0,0-0.9-2-2-2h0c-1.1,0-2,2-2,2s0,4.5,0,6C20,357.1,22,358,22,358z"/>
<path class="st3" d="M46,358L46,358c1.1,0,2-0.9,2-2v-6c0,0-0.9-2-2-2h0c-4,0-4,2-4,2l2,6C44,357.1,46,358,46,358z"/>
<path class="st0" d="M50,349c0,1.7,1.3,3,3,3s3-0.3,3-2s-1.3-4-3-4S50,347.3,50,349z"/>
<ellipse class="st0" cx="33" cy="378" rx="1" ry="4"/>
<path class="st4" d="M31.9,374c0,2.2,0.2,4,1,4s1-1.8,1-4s-0.7-4-1.5-4C31.6,370,31.9,371.8,31.9,374z"/>
<path class="st0" d="M14,334c0,1.7,1.3,6,3,6s3-1.3,3-3s-0.3-5-2-5S14,332.3,14,334z"/>
<path class="st1" d="M94,328.5c0,1.1,3.1,4,7,4s7-2.9,7-4c0-1.1-3.1,0-7,0S94,327.4,94,328.5z"/>
<path class="st0" d="M86,352c0,11.6,6.2,18,14,18s14-6.4,14-18c0-11.6-6.2-22-14-22S86,340.4,86,352z"/>
<ellipse class="st1" cx="100" cy="329" rx="6" ry="3"/>
<path class="st1" d="M86,352c0,11.6,6.2,18,14,18s14-6.4,14-18c0-11.6-8.2,2-16,2S86,340.4,86,352z"/>
<path class="st3" d="M96,360h6c2.2,0,4-1.8,4-4l0,0c0-8,0-4-4-2h-6c-4-2-4-4-4,2l0,0C92,358.2,93.8,360,96,360z"/>
<path class="st3" d="M88,358L88,358c1.1,0,2-0.9,2-2v-6c0,0-0.9-2-2-2l0,0c-1.1,0-2,2-2,2s0,4.5,0,6C86,357.1,88,358,88,358z"/>
<path class="st3" d="M112,358L112,358c1.1,0,2-0.9,2-2v-6c0,0-0.9-2-2-2l0,0c-4,0-4,2-4,2l2,6C110,357.1,112,358,112,358z"/>
<path class="st0" d="M114,339c0,1.7,1.3,3,3,3s3-0.3,3-2s-1.3-4-3-4S114,337.3,114,339z"/>
<ellipse class="st0" cx="99" cy="378" rx="1" ry="4"/>
<path class="st4" d="M97.9,374c0,2.2,0.2,4,1,4c0.9,0,1-1.8,1-4s-0.7-4-1.5-4C97.6,370,97.9,371.8,97.9,374z"/>
<path class="st0" d="M80,338c0,1.7,1.3,6,3,6s3-1.3,3-3s-0.3-5-2-5S80,336.3,80,338z"/>
<path class="st1" d="M158,328.5c0,1.1,3.1,4,7,4s7-2.9,7-4c0-1.1-3.1,0-7,0S158,327.4,158,328.5z"/>
<path class="st0" d="M150,352c0,11.6,6.2,18,14,18s14-6.4,14-18c0-11.6-6.2-22-14-22S150,340.4,150,352z"/>
<ellipse class="st1" cx="164" cy="329" rx="6" ry="3"/>
<path class="st1" d="M150,352c0,11.6,6.2,18,14,18s14-6.4,14-18c0-11.6-8.2,2-16,2S150,340.4,150,352z"/>
<path class="st3" d="M160,360h6c2.2,0,4-1.8,4-4l0,0c0-8,0-4-4-2h-6c-4-2-4-4-4,2l0,0C156,358.2,157.8,360,160,360z"/>
<path class="st3" d="M152,358L152,358c1.1,0,2-0.9,2-2v-6c0,0-0.9-2-2-2l0,0c-1.1,0-2,2-2,2s0,4.5,0,6C150,357.1,152,358,152,358z"
	/>
<path class="st3" d="M176,358L176,358c1.1,0,2-0.9,2-2v-6c0,0-0.9-2-2-2l0,0c-4,0-4,2-4,2l2,6C174,357.1,176,358,176,358z"/>
<path class="st0" d="M176,333c0,1.7,1.3,3,3,3s3-0.3,3-2s-1.3-4-3-4S176,331.3,176,333z"/>
<ellipse class="st0" cx="163" cy="378" rx="1" ry="4"/>
<path class="st4" d="M161.9,374c0,2.2,0.2,4,1,4c0.9,0,1-1.8,1-4s-0.7-4-1.5-4C161.6,370,161.9,371.8,161.9,374z"/>
<path class="st0" d="M142,344c0,1.7,1.3,6,3,6s3-1.3,3-3s-0.3-5-2-5S142,342.3,142,344z"/>
<path class="st1" d="M224,328.5c0,1.1,3.1,4,7,4s7-2.9,7-4c0-1.1-3.1,0-7,0S224,327.4,224,328.5z"/>
<path class="st0" d="M216,352c0,11.6,6.2,18,14,18s14-6.4,14-18s-6.2-22-14-22S216,340.4,216,352z"/>
<ellipse class="st1" cx="230" cy="329" rx="6" ry="3"/>
<path class="st1" d="M216,352c0,11.6,6.2,18,14,18s14-6.4,14-18s-8.2,2-16,2S216,340.4,216,352z"/>
<path class="st3" d="M226,360h6c2.2,0,4-1.8,4-4l0,0c0-8,0-4-4-2h-6c-4-2-4-4-4,2l0,0C222,358.2,223.8,360,226,360z"/>
<path class="st3" d="M218,358L218,358c1.1,0,2-0.9,2-2v-6c0,0-0.9-2-2-2l0,0c-1.1,0-2,2-2,2s0,4.5,0,6C216,357.1,218,358,218,358z"
	/>
<path class="st3" d="M242,358L242,358c1.1,0,2-0.9,2-2v-6c0,0-0.9-2-2-2l0,0c-4,0-4,2-4,2l2,6C240,357.1,242,358,242,358z"/>
<path class="st0" d="M243,340c0,1.7,1.3,3,3,3s3-0.3,3-2s-1.3-4-3-4S243,338.3,243,340z"/>
<ellipse class="st0" cx="229" cy="378" rx="1" ry="4"/>
<path class="st4" d="M227.9,374c0,2.2,0.2,4,1,4c0.9,0,1-1.8,1-4s-0.7-4-1.5-4C227.6,370,227.9,371.8,227.9,374z"/>
<path class="st0" d="M211,336c0,1.7,1.3,6,3,6s3-1.3,3-3s-0.3-5-2-5S211,334.3,211,336z"/>
<path class="st1" d="M285,328.5c0,1.1,3.1,4,7,4s7-2.9,7-4c0-1.1-3.1,0-7,0S285,327.4,285,328.5z"/>
<path class="st0" d="M277,352c0,11.6,6.2,18,14,18s14-6.4,14-18s-6.2-22-14-22S277,340.4,277,352z"/>
<ellipse class="st1" cx="291" cy="329" rx="6" ry="3"/>
<path class="st1" d="M277,352c0,11.6,6.2,18,14,18s14-6.4,14-18s-8.2,2-16,2S277,340.4,277,352z"/>
<path class="st3" d="M287,360h6c2.2,0,4-1.8,4-4l0,0c0-8,0-4-4-2h-6c-4-2-4-4-4,2l0,0C283,358.2,284.8,360,287,360z"/>
<path class="st3" d="M279,358L279,358c1.1,0,2-0.9,2-2v-6c0,0-0.9-2-2-2l0,0c-1.1,0-2,2-2,2s0,4.5,0,6C277,357.1,279,358,279,358z"
	/>
<path class="st3" d="M303,358L303,358c1.1,0,2-0.9,2-2v-6c0,0-0.9-2-2-2l0,0c-4,0-4,2-4,2l2,6C301,357.1,303,358,303,358z"/>
<path class="st0" d="M307,349c0,1.7,1.3,3,3,3s3-0.3,3-2s-1.3-4-3-4S307,347.3,307,349z"/>
<ellipse class="st0" cx="290" cy="378" rx="1" ry="4"/>
<path class="st4" d="M288.9,374c0,2.2,0.2,4,1,4c0.9,0,1-1.8,1-4s-0.7-4-1.5-4C288.6,370,288.9,371.8,288.9,374z"/>
<path class="st0" d="M271,334c0,1.7,1.3,6,3,6s3-1.3,3-3s-0.3-5-2-5S271,332.3,271,334z"/>
<path class="st1" d="M351,328.5c0,1.1,3.1,4,7,4s7-2.9,7-4c0-1.1-3.1,0-7,0S351,327.4,351,328.5z"/>
<path class="st0" d="M343,352c0,11.6,6.2,18,14,18s14-6.4,14-18c0-11.6-6.2-22-14-22S343,340.4,343,352z"/>
<ellipse class="st1" cx="357" cy="329" rx="6" ry="3"/>
<path class="st1" d="M343,352c0,11.6,6.2,18,14,18s14-6.4,14-18c0-11.6-8.2,2-16,2S343,340.4,343,352z"/>
<path class="st3" d="M353,360h6c2.2,0,4-1.8,4-4l0,0c0-8,0-4-4-2h-6c-4-2-4-4-4,2l0,0C349,358.2,350.8,360,353,360z"/>
<path class="st3" d="M345,358L345,358c1.1,0,2-0.9,2-2v-6c0,0-0.9-2-2-2l0,0c-1.1,0-2,2-2,2s0,4.5,0,6C343,357.1,345,358,345,358z"
	/>
<path class="st3" d="M369,358L369,358c1.1,0,2-0.9,2-2v-6c0,0-0.9-2-2-2l0,0c-4,0-4,2-4,2l2,6C367,357.1,369,358,369,358z"/>
<path class="st0" d="M371,339c0,1.7,1.3,3,3,3s3-0.3,3-2s-1.3-4-3-4S371,337.3,371,339z"/>
<ellipse class="st0" cx="356" cy="378" rx="1" ry="4"/>
<path class="st4" d="M354.9,374c0,2.2,0.2,4,1,4c0.9,0,1-1.8,1-4s-0.7-4-1.5-4C354.6,370,354.9,371.8,354.9,374z"/>
<path class="st0" d="M337,338c0,1.7,1.3,6,3,6s3-1.3,3-3s-0.3-5-2-5S337,336.3,337,338z"/>
<path class="st1" d="M415,328.5c0,1.1,3.1,4,7,4s7-2.9,7-4c0-1.1-3.1,0-7,0S415,327.4,415,328.5z"/>
<path class="st0" d="M407,352c0,11.6,6.2,18,14,18s14-6.4,14-18c0-11.6-6.2-22-14-22S407,340.4,407,352z"/>
<ellipse class="st1" cx="421" cy="329" rx="6" ry="3"/>
<path class="st1" d="M407,352c0,11.6,6.2,18,14,18s14-6.4,14-18c0-11.6-8.2,2-16,2S407,340.4,407,352z"/>
<path class="st3" d="M417,360h6c2.2,0,4-1.8,4-4l0,0c0-8,0-4-4-2h-6c-4-2-4-4-4,2l0,0C413,358.2,414.8,360,417,360z"/>
<path class="st3" d="M409,358L409,358c1.1,0,2-0.9,2-2v-6c0,0-0.9-2-2-2l0,0c-1.1,0-2,2-2,2s0,4.5,0,6C407,357.1,409,358,409,358z"
	/>
<path class="st3" d="M433,358L433,358c1.1,0,2-0.9,2-2v-6c0,0-0.9-2-2-2l0,0c-4,0-4,2-4,2l2,6C431,357.1,433,358,433,358z"/>
<path class="st0" d="M433,333c0,1.7,1.3,3,3,3s3-0.3,3-2s-1.3-4-3-4S433,331.3,433,333z"/>
<ellipse class="st0" cx="420" cy="378" rx="1" ry="4"/>
<path class="st4" d="M418.9,374c0,2.2,0.2,4,1,4c0.9,0,1-1.8,1-4s-0.7-4-1.5-4C418.6,370,418.9,371.8,418.9,374z"/>
<path class="st0" d="M399,344c0,1.7,1.3,6,3,6s3-1.3,3-3s-0.3-5-2-5S399,342.3,399,344z"/>
<path class="st1" d="M481,328.5c0,1.1,3.1,4,7,4s7-2.9,7-4c0-1.1-3.1,0-7,0S481,327.4,481,328.5z"/>
<path class="st0" d="M473,352c0,11.6,6.2,18,14,18s14-6.4,14-18s-6.2-22-14-22S473,340.4,473,352z"/>
<ellipse class="st1" cx="487" cy="329" rx="6" ry="3"/>
<path class="st1" d="M473,352c0,11.6,6.2,18,14,18s14-6.4,14-18s-8.2,2-16,2S473,340.4,473,352z"/>
<path class="st3" d="M483,360h6c2.2,0,4-1.8,4-4l0,0c0-8,0-4-4-2h-6c-4-2-4-4-4,2l0,0C479,358.2,480.8,360,483,360z"/>
<path class="st3" d="M475,358L475,358c1.1,0,2-0.9,2-2v-6c0,0-0.9-2-2-2l0,0c-1.1,0-2,2-2,2s0,4.5,0,6C473,357.1,475,358,475,358z"
	/>
<path class="st3" d="M499,358L499,358c1.1,0,2-0.9,2-2v-6c0,0-0.9-2-2-2l0,0c-4,0-4,2-4,2l2,6C497,357.1,499,358,499,358z"/>
<path class="st0" d="M500,340c0,1.7,1.3,3,3,3s3-0.3,3-2s-1.3-4-3-4S500,338.3,500,340z"/>
<ellipse class="st0" cx="486" cy="378" rx="1" ry="4"/>
<path class="st4" d="M484.9,374c0,2.2,0.2,4,1,4c0.9,0,1-1.8,1-4s-0.7-4-1.5-4C484.6,370,484.9,371.8,484.9,374z"/>
<path class="st0" d="M468,336c0,1.7,1.3,6,3,6s3-1.3,3-3s-0.3-5-2-5S468,334.3,468,336z"/>
<path class="st0" d="M46,32c0,11.6-6.2,18-14,18s-14-6.4-14-18s6.2-22,14-22S46,20.4,46,32z"/>
<path class="st1" d="M40,10.5c0,1.1-2.7,4-6,4s-6-2.9-6-4s2.7,0,6,0S40,9.4,40,10.5z"/>
<ellipse class="st1" cx="32" cy="9" rx="6" ry="3"/>
<ellipse class="st2" cx="27" cy="20" rx="1" ry="4"/>
<ellipse class="st2" cx="37" cy="20" rx="1" ry="4"/>
<path class="st2" d="M36,27c0,1.7-1.8,0.9-4,0.9s-4,0.7-4-0.9s1.8-1,4-1S36,25.3,36,27z"/>
<path class="st1" d="M46,32c0,11.6-6.2,18-14,18s-14-6.4-14-18s6.2,2,14,2S46,20.4,46,32z"/>
<path class="st3" d="M36,40h-6c-2.2,0-4-1.8-4-4v0c0-8-8-10,4-2h6c4-2,4-4,4,2v0C40,38.2,38.2,40,36,40z"/>
<path class="st3" d="M44,38L44,38c-1.1,0-2-0.9-2-2v-6c0,0,0.9-2,2-2h0c1.1,0,2,2,2,2s0,4.5,0,6C46,37.1,44,38,44,38z"/>
<path class="st3" d="M20,38L20,38c-1.1,0-2-0.9-2-2v-6c0,0,0.9-2,2-2h0c4,0,4,2,4,2l-2,6C22,37.1,20,38,20,38z"/>
<circle class="st0" cx="32" cy="58" r="4"/>
<path class="st4" d="M34,54c0,2.2-0.3,4-2,4c-1.7,0-2-1.8-2-4s1.3-4,3-4C34.7,50,34,51.8,34,54z"/>
<path class="st0" d="M16,35c0,1.7-1.3,3-3,3s-3-0.3-3-2s1.3-4,3-4S16,33.3,16,35z"/>
<path class="st0" d="M48,35c0,1.7,1.3,3,3,3s3-0.3,3-2s-1.3-4-3-4S48,33.3,48,35z"/>
<path class="st0" d="M110,33.1c0,11.2-6.2,17.4-14,17.4s-14-6.2-14-17.4s6.2-21.2,14-21.2S110,21.9,110,33.1z"/>
<path class="st1" d="M104,12.3c0,1.1-2.7,3.9-6,3.9s-6-2.8-6-3.9s2.7,0,6,0S104,11.3,104,12.3z"/>
<ellipse class="st1" cx="96" cy="10.9" rx="6" ry="2.9"/>
<ellipse class="st2" cx="91" cy="21.5" rx="1" ry="3.9"/>
<ellipse class="st2" cx="101" cy="21.5" rx="1" ry="3.9"/>
<path class="st1" d="M110,33.1c0,11.2-6.2,17.4-14,17.4s-14-6.2-14-17.4S88.2,35,96,35S110,21.9,110,33.1z"/>
<path class="st3" d="M100,40.8h-6c-2.2,0-4-1.7-4-3.9v0c0-7.7-8-9.6,4-1.9h6c4-1.9,4-3.9,4,1.9v0C104,39.1,102.2,40.8,100,40.8z"/>
<path class="st3" d="M108,38.9L108,38.9c-1.1,0-2-0.9-2-1.9v-5.8c0,0,0.9-1.9,2-1.9l0,0c1.1,0,2,1.9,2,1.9s0,4.3,0,5.8
	C110,38,108,38.9,108,38.9z"/>
<path class="st3" d="M84,38.9L84,38.9c-1.1,0-2-0.9-2-1.9v-5.8c0,0,0.9-1.9,2-1.9l0,0c4,0,4,1.9,4,1.9l-2,5.8C86,38,84,38.9,84,38.9
	z"/>
<ellipse class="st0" cx="96" cy="58.1" rx="4" ry="3.9"/>
<path class="st4" d="M98,54.3c0,2.1-0.3,3.9-2,3.9s-2-1.7-2-3.9s1.3-3.9,3-3.9S98,52.2,98,54.3z"/>
<path class="st0" d="M80,37c0,1.7-1.3,3-3,3s-3-0.3-3-2s1.3-4,3-4S80,35.3,80,37z"/>
<path class="st0" d="M112,33c0,1.7,1.3,3,3,3s3-0.3,3-2s-1.3-4-3-4S112,31.3,112,33z"/>
<path class="st0" d="M174,34.1c0,10.8-6.2,16.7-14,16.7s-14-5.9-14-16.7s6.2-20.4,14-20.4S174,23.4,174,34.1z"/>
<path class="st1" d="M168,14.2c0,1-2.7,3.7-6,3.7s-6-2.7-6-3.7s2.7,0,6,0S168,13.1,168,14.2z"/>
<ellipse class="st1" cx="160" cy="12.8" rx="6" ry="2.8"/>
<ellipse class="st2" cx="155" cy="23" rx="1" ry="3.7"/>
<ellipse class="st2" cx="165" cy="23" rx="1" ry="3.7"/>
<path class="st1" d="M174,34.1c0,10.8-6.2,16.7-14,16.7s-14-5.9-14-16.7s6.2,1.9,14,1.9S174,23.4,174,34.1z"/>
<path class="st3" d="M164,41.6h-6c-2.2,0-4-1.7-4-3.7v0c0-7.4-8-9.3,4-1.9h6c4-1.9,4-3.7,4,1.9v0C168,39.9,166.2,41.6,164,41.6z"/>
<path class="st3" d="M172,39.7L172,39.7c-1.1,0-2-0.8-2-1.9v-5.6c0,0,0.9-1.9,2-1.9l0,0c1.1,0,2,1.9,2,1.9s0,4.2,0,5.6
	C174,38.9,172,39.7,172,39.7z"/>
<path class="st3" d="M148,39.7L148,39.7c-1.1,0-2-0.8-2-1.9v-5.6c0,0,0.9-1.9,2-1.9l0,0c4,0,4,1.9,4,1.9l-2,5.6
	C150,38.9,148,39.7,148,39.7z"/>
<ellipse class="st0" cx="160" cy="58.3" rx="4" ry="3.7"/>
<path class="st4" d="M162,54.6c0,2.1-0.3,3.7-2,3.7s-2-1.7-2-3.7c0-2.1,1.3-3.7,3-3.7S162,52.5,162,54.6z"/>
<path class="st0" d="M144,35c0,1.7-1.3,3-3,3s-3-0.3-3-2s1.3-4,3-4S144,33.3,144,35z"/>
<path class="st0" d="M176,35c0,1.7,1.3,3,3,3s3-0.3,3-2s-1.3-4-3-4S176,33.3,176,35z"/>
<path class="st0" d="M238,33.1c0,11.2-6.2,17.4-14,17.4s-14-6.2-14-17.4s6.2-21.2,14-21.2S238,21.9,238,33.1z"/>
<path class="st1" d="M232,12.3c0,1.1-2.7,3.9-6,3.9s-6-2.8-6-3.9s2.7,0,6,0S232,11.3,232,12.3z"/>
<ellipse class="st1" cx="224" cy="10.9" rx="6" ry="2.9"/>
<ellipse class="st2" cx="219" cy="21.5" rx="1" ry="3.9"/>
<ellipse class="st2" cx="229" cy="21.5" rx="1" ry="3.9"/>
<path class="st1" d="M238,33.1c0,11.2-6.2,17.4-14,17.4s-14-6.2-14-17.4s6.2,1.9,14,1.9S238,21.9,238,33.1z"/>
<path class="st3" d="M228,40.8h-6c-2.2,0-4-1.7-4-3.9v0c0-7.7-8-9.6,4-1.9h6c4-1.9,4-3.9,4,1.9v0C232,39.1,230.2,40.8,228,40.8z"/>
<path class="st3" d="M236,38.9L236,38.9c-1.1,0-2-0.9-2-1.9v-5.8c0,0,0.9-1.9,2-1.9l0,0c1.1,0,2,1.9,2,1.9s0,4.3,0,5.8
	C238,38,236,38.9,236,38.9z"/>
<path class="st3" d="M212,38.9L212,38.9c-1.1,0-2-0.9-2-1.9v-5.8c0,0,0.9-1.9,2-1.9l0,0c4,0,4,1.9,4,1.9l-2,5.8
	C214,38,212,38.9,212,38.9z"/>
<ellipse class="st0" cx="224" cy="58.1" rx="4" ry="3.9"/>
<path class="st4" d="M226,54.3c0,2.1-0.3,3.9-2,3.9s-2-1.7-2-3.9s1.3-3.9,3-3.9S226,52.2,226,54.3z"/>
<path class="st0" d="M208,33c0,1.7-1.3,3-3,3s-3-0.3-3-2s1.3-4,3-4S208,31.3,208,33z"/>
<path class="st0" d="M240,37c0,1.7,1.3,3,3,3s3-0.3,3-2s-1.3-4-3-4S240,35.3,240,37z"/>
<path class="st0" d="M302,32c0,11.6-6.2,18-14,18s-14-6.4-14-18s6.2-22,14-22S302,20.4,302,32z"/>
<path class="st1" d="M296,10.5c0,1.1-2.7,4-6,4s-6-2.9-6-4s2.7,0,6,0S296,9.4,296,10.5z"/>
<ellipse class="st1" cx="288" cy="9" rx="6" ry="3"/>
<ellipse class="st2" cx="283" cy="20" rx="1" ry="4"/>
<ellipse class="st2" cx="293" cy="20" rx="1" ry="4"/>
<path class="st1" d="M302,32c0,11.6-6.2,18-14,18s-14-6.4-14-18s6.2,2,14,2S302,20.4,302,32z"/>
<path class="st3" d="M292,40h-6c-2.2,0-4-1.8-4-4v0c0-8-8-10,4-2h6c4-2,4-4,4,2v0C296,38.2,294.2,40,292,40z"/>
<path class="st3" d="M300,38L300,38c-1.1,0-2-0.9-2-2v-6c0,0,0.9-2,2-2l0,0c1.1,0,2,2,2,2s0,4.5,0,6C302,37.1,300,38,300,38z"/>
<path class="st3" d="M276,38L276,38c-1.1,0-2-0.9-2-2v-6c0,0,0.9-2,2-2l0,0c4,0,4,2,4,2l-2,6C278,37.1,276,38,276,38z"/>
<circle class="st0" cx="288" cy="58" r="4"/>
<path class="st4" d="M290,54c0,2.2-0.3,4-2,4s-2-1.8-2-4s1.3-4,3-4S290,51.8,290,54z"/>
<path class="st0" d="M272,35c0,1.7-1.3,3-3,3s-3-0.3-3-2s1.3-4,3-4S272,33.3,272,35z"/>
<path class="st0" d="M304,35c0,1.7,1.3,3,3,3s3-0.3,3-2s-1.3-4-3-4S304,33.3,304,35z"/>
<path class="st0" d="M366,33.1c0,11.2-6.2,17.4-14,17.4s-14-6.2-14-17.4s6.2-21.2,14-21.2S366,21.9,366,33.1z"/>
<path class="st1" d="M360,12.3c0,1.1-2.7,3.9-6,3.9s-6-2.8-6-3.9s2.7,0,6,0S360,11.3,360,12.3z"/>
<ellipse class="st1" cx="352" cy="10.9" rx="6" ry="2.9"/>
<ellipse class="st2" cx="347" cy="21.5" rx="1" ry="3.9"/>
<ellipse class="st2" cx="357" cy="21.5" rx="1" ry="3.9"/>
<path class="st1" d="M366,33.1c0,11.2-6.2,17.4-14,17.4s-14-6.2-14-17.4s6.2,1.9,14,1.9S366,21.9,366,33.1z"/>
<path class="st3" d="M356,40.8h-6c-2.2,0-4-1.7-4-3.9v0c0-7.7-8-9.6,4-1.9h6c4-1.9,4-3.9,4,1.9v0C360,39.1,358.2,40.8,356,40.8z"/>
<path class="st3" d="M364,38.9L364,38.9c-1.1,0-2-0.9-2-1.9v-5.8c0,0,0.9-1.9,2-1.9l0,0c1.1,0,2,1.9,2,1.9s0,4.3,0,5.8
	C366,38,364,38.9,364,38.9z"/>
<path class="st3" d="M340,38.9L340,38.9c-1.1,0-2-0.9-2-1.9v-5.8c0,0,0.9-1.9,2-1.9l0,0c4,0,4,1.9,4,1.9l-2,5.8
	C342,38,340,38.9,340,38.9z"/>
<ellipse class="st0" cx="352" cy="58.1" rx="4" ry="3.9"/>
<path class="st4" d="M354,54.3c0,2.1-0.3,3.9-2,3.9s-2-1.7-2-3.9s1.3-3.9,3-3.9S354,52.2,354,54.3z"/>
<path class="st0" d="M336,37c0,1.7-1.3,3-3,3s-3-0.3-3-2s1.3-4,3-4S336,35.3,336,37z"/>
<path class="st0" d="M368,33c0,1.7,1.3,3,3,3s3-0.3,3-2s-1.3-4-3-4S368,31.3,368,33z"/>
<path class="st0" d="M430,34.1c0,10.8-6.2,16.7-14,16.7s-14-5.9-14-16.7s6.2-20.4,14-20.4S430,23.4,430,34.1z"/>
<path class="st1" d="M424,14.2c0,1-2.7,3.7-6,3.7s-6-2.7-6-3.7s2.7,0,6,0S424,13.1,424,14.2z"/>
<ellipse class="st1" cx="416" cy="12.8" rx="6" ry="2.8"/>
<ellipse class="st2" cx="411" cy="23" rx="1" ry="3.7"/>
<ellipse class="st2" cx="421" cy="23" rx="1" ry="3.7"/>
<path class="st1" d="M430,34.1c0,10.8-6.2,16.7-14,16.7s-14-5.9-14-16.7s6.2,1.9,14,1.9S430,23.4,430,34.1z"/>
<path class="st3" d="M420,41.6h-6c-2.2,0-4-1.7-4-3.7v0c0-7.4-8-9.3,4-1.9h6c4-1.9,4-3.7,4,1.9v0C424,39.9,422.2,41.6,420,41.6z"/>
<path class="st3" d="M428,39.7L428,39.7c-1.1,0-2-0.8-2-1.9v-5.6c0,0,0.9-1.9,2-1.9l0,0c1.1,0,2,1.9,2,1.9s0,4.2,0,5.6
	C430,38.9,428,39.7,428,39.7z"/>
<path class="st3" d="M404,39.7L404,39.7c-1.1,0-2-0.8-2-1.9v-5.6c0,0,0.9-1.9,2-1.9l0,0c4,0,4,1.9,4,1.9l-2,5.6
	C406,38.9,404,39.7,404,39.7z"/>
<ellipse class="st0" cx="416" cy="58.3" rx="4" ry="3.7"/>
<path class="st4" d="M418,54.6c0,2.1-0.3,3.7-2,3.7s-2-1.7-2-3.7c0-2.1,1.3-3.7,3-3.7S418,52.5,418,54.6z"/>
<path class="st0" d="M400,35c0,1.7-1.3,3-3,3s-3-0.3-3-2s1.3-4,3-4S400,33.3,400,35z"/>
<path class="st0" d="M432,35c0,1.7,1.3,3,3,3s3-0.3,3-2s-1.3-4-3-4S432,33.3,432,35z"/>
<path class="st0" d="M494,33.1c0,11.2-6.2,17.4-14,17.4s-14-6.2-14-17.4s6.2-21.2,14-21.2S494,21.9,494,33.1z"/>
<path class="st1" d="M488,12.3c0,1.1-2.7,3.9-6,3.9s-6-2.8-6-3.9s2.7,0,6,0S488,11.3,488,12.3z"/>
<ellipse class="st1" cx="480" cy="10.9" rx="6" ry="2.9"/>
<ellipse class="st2" cx="475" cy="21.5" rx="1" ry="3.9"/>
<ellipse class="st2" cx="485" cy="21.5" rx="1" ry="3.9"/>
<path class="st1" d="M494,33.1c0,11.2-6.2,17.4-14,17.4s-14-6.2-14-17.4s6.2,1.9,14,1.9S494,21.9,494,33.1z"/>
<path class="st3" d="M484,40.8h-6c-2.2,0-4-1.7-4-3.9v0c0-7.7-8-9.6,4-1.9h6c4-1.9,4-3.9,4,1.9v0C488,39.1,486.2,40.8,484,40.8z"/>
<path class="st3" d="M492,38.9L492,38.9c-1.1,0-2-0.9-2-1.9v-5.8c0,0,0.9-1.9,2-1.9l0,0c1.1,0,2,1.9,2,1.9s0,4.3,0,5.8
	C494,38,492,38.9,492,38.9z"/>
<path class="st3" d="M468,38.9L468,38.9c-1.1,0-2-0.9-2-1.9v-5.8c0,0,0.9-1.9,2-1.9l0,0c4,0,4,1.9,4,1.9l-2,5.8
	C470,38,468,38.9,468,38.9z"/>
<ellipse class="st0" cx="480" cy="58.1" rx="4" ry="3.9"/>
<path class="st4" d="M482,54.3c0,2.1-0.3,3.9-2,3.9s-2-1.7-2-3.9s1.3-3.9,3-3.9S482,52.2,482,54.3z"/>
<path class="st0" d="M464,33c0,1.7-1.3,3-3,3s-3-0.3-3-2s1.3-4,3-4S464,31.3,464,33z"/>
<path class="st0" d="M496,37c0,1.7,1.3,3,3,3s3-0.3,3-2s-1.3-4-3-4S496,35.3,496,37z"/>
<path class="st2" d="M100,28.9c0,1.7-1.8,0.9-4,0.9s-4,0.7-4-0.9c0-1.7,1.8-1,4-1S100,27.3,100,28.9z"/>
<path class="st2" d="M164,30.9c0,1.7-1.8,0.9-4,0.9s-4,0.7-4-0.9c0-1.7,1.8-1,4-1S164,29.3,164,30.9z"/>
<path class="st2" d="M228,29.1c0,1.7-1.8,0.9-4,0.9s-4,0.7-4-0.9c0-1.7,1.8-1,4-1S228,27.5,228,29.1z"/>
<path class="st2" d="M292,27.1c0,1.7-1.8,0.9-4,0.9s-4,0.7-4-0.9c0-1.7,1.8-1,4-1S292,25.5,292,27.1z"/>
<path class="st2" d="M356,28.9c0,1.7-1.8,0.9-4,0.9s-4,0.7-4-0.9c0-1.7,1.8-1,4-1S356,27.3,356,28.9z"/>
<path class="st2" d="M420,29.1c0,1.7-1.8,0.9-4,0.9s-4,0.7-4-0.9c0-1.7,1.8-1,4-1S420,27.5,420,29.1z"/>
<path class="st2" d="M484,29.1c0,1.7-1.8,0.9-4,0.9s-4,0.7-4-0.9c0-1.7,1.8-1,4-1S484,27.5,484,29.1z"/>
<path class="st0" d="M46,416c0,11.6-6.2,18-14,18s-14-6.4-14-18s6.2-22,14-22S46,404.4,46,416z"/>
<path class="st1" d="M46,394c0,1.1-3.1,4-7,4s-7-2.9-7-4s3.1,0,7,0S46,392.9,46,394z"/>
<ellipse class="st1" cx="32" cy="393" rx="6" ry="3"/>
<ellipse class="st2" cx="29" cy="404" rx="1" ry="4"/>
<ellipse class="st2" cx="39" cy="404" rx="1" ry="4"/>
<path class="st1" d="M46,416c0,11.6-6.2,18-14,18s-14-6.4-14-18s8.2,2,16,2S46,404.4,46,416z"/>
<path class="st3" d="M36,424h-6c-2.2,0-4-1.8-4-4l0,0c0-8,0-4,4-2h6c4-2,4-4,4,2l0,0C40,422.2,38.2,424,36,424z"/>
<path class="st3" d="M44,422L44,422c-1.1,0-2-0.9-2-2v-6c0,0,0.9-2,2-2h0c1.1,0,2,2,2,2s0,4.5,0,6C46,421.1,44,422,44,422z"/>
<path class="st3" d="M20,422L20,422c-1.1,0-2-0.9-2-2v-6c0,0,0.9-2,2-2h0c4,0,4,2,4,2l-2,6C22,421.1,20,422,20,422z"/>
<circle class="st0" cx="32" cy="442" r="4"/>
<path class="st4" d="M34,438c0,2.2-0.3,4-2,4c-1.7,0-2-1.8-2-4s1.3-4,3-4C34.7,434,34,435.8,34,438z"/>
<path class="st0" d="M46,421c0,1.7-1.3,3-3,3s-3-0.3-3-2s1.3-4,3-4S46,419.3,46,421z"/>
<path class="st2" d="M36,410c0,1.6,0.2,4-2,4c-2.2,0-2-0.4-2-2s-0.2-4,2-4C36.2,408,36,408.4,36,410z"/>
<path class="st0" d="M58,415c0,1.7-1.3,3-3,3s-3-0.3-3-2s1.3-4,3-4S58,413.3,58,415z"/>
<path class="st0" d="M110,416c0,11.6-6.2,18-14,18s-14-6.4-14-18s6.2-22,14-22S110,404.4,110,416z"/>
<path class="st1" d="M110,394c0,1.1-3.1,4-7,4s-7-2.9-7-4s3.1,0,7,0S110,392.9,110,394z"/>
<ellipse class="st1" cx="96" cy="393" rx="6" ry="3"/>
<ellipse class="st2" cx="93" cy="404" rx="1" ry="4"/>
<ellipse class="st2" cx="103" cy="404" rx="1" ry="4"/>
<path class="st1" d="M110,416c0,11.6-6.2,18-14,18s-14-6.4-14-18s8.2,2,16,2S110,404.4,110,416z"/>
<path class="st3" d="M100,424h-6c-2.2,0-4-1.8-4-4l0,0c0-8,0-4,4-2h6c4-2,4-4,4,2l0,0C104,422.2,102.2,424,100,424z"/>
<path class="st3" d="M108,422L108,422c-1.1,0-2-0.9-2-2v-6c0,0,0.9-2,2-2l0,0c1.1,0,2,2,2,2s0,4.5,0,6C110,421.1,108,422,108,422z"
	/>
<path class="st3" d="M84,422L84,422c-1.1,0-2-0.9-2-2v-6c0,0,0.9-2,2-2l0,0c4,0,4,2,4,2l-2,6C86,421.1,84,422,84,422z"/>
<circle class="st0" cx="96" cy="442" r="4"/>
<path class="st4" d="M98,438c0,2.2-0.3,4-2,4s-2-1.8-2-4s1.3-4,3-4S98,435.8,98,438z"/>
<path class="st0" d="M110,423c0,1.7-1.3,3-3,3s-3-0.3-3-2s1.3-4,3-4S110,421.3,110,423z"/>
<path class="st2" d="M100,410c0,1.6,0.2,4-2,4c-2.2,0-2-0.4-2-2s-0.2-4,2-4C100.2,408,100,408.4,100,410z"/>
<path class="st0" d="M122,413c0,1.7-1.3,3-3,3s-3-0.3-3-2s1.3-4,3-4S122,411.3,122,413z"/>
<path class="st0" d="M174,416c0,11.6-6.2,18-14,18s-14-6.4-14-18s6.2-22,14-22S174,404.4,174,416z"/>
<path class="st1" d="M174,394c0,1.1-3.1,4-7,4s-7-2.9-7-4s3.1,0,7,0S174,392.9,174,394z"/>
<ellipse class="st1" cx="160" cy="393" rx="6" ry="3"/>
<ellipse class="st2" cx="157" cy="404" rx="1" ry="4"/>
<ellipse class="st2" cx="167" cy="404" rx="1" ry="4"/>
<path class="st1" d="M174,416c0,11.6-6.2,18-14,18s-14-6.4-14-18s8.2,2,16,2S174,404.4,174,416z"/>
<path class="st3" d="M164,424h-6c-2.2,0-4-1.8-4-4l0,0c0-8,0-4,4-2h6c4-2,4-4,4,2l0,0C168,422.2,166.2,424,164,424z"/>
<path class="st3" d="M172,422L172,422c-1.1,0-2-0.9-2-2v-6c0,0,0.9-2,2-2l0,0c1.1,0,2,2,2,2s0,4.5,0,6C174,421.1,172,422,172,422z"
	/>
<path class="st3" d="M148,422L148,422c-1.1,0-2-0.9-2-2v-6c0,0,0.9-2,2-2l0,0c4,0,4,2,4,2l-2,6C150,421.1,148,422,148,422z"/>
<circle class="st0" cx="160" cy="442" r="4"/>
<path class="st4" d="M162,438c0,2.2-0.3,4-2,4s-2-1.8-2-4s1.3-4,3-4S162,435.8,162,438z"/>
<path class="st0" d="M174,421c0,1.7-1.3,3-3,3s-3-0.3-3-2s1.3-4,3-4S174,419.3,174,421z"/>
<path class="st2" d="M164,410c0,1.6,0.2,4-2,4s-2-0.4-2-2s-0.2-4,2-4S164,408.4,164,410z"/>
<path class="st0" d="M186,415c0,1.7-1.3,3-3,3s-3-0.3-3-2s1.3-4,3-4S186,413.3,186,415z"/>
<path class="st0" d="M238,416c0,11.6-6.2,18-14,18s-14-6.4-14-18s6.2-22,14-22S238,404.4,238,416z"/>
<path class="st1" d="M238,394c0,1.1-3.1,4-7,4s-7-2.9-7-4s3.1,0,7,0S238,392.9,238,394z"/>
<ellipse class="st1" cx="224" cy="393" rx="6" ry="3"/>
<ellipse class="st2" cx="221" cy="404" rx="1" ry="4"/>
<ellipse class="st2" cx="231" cy="404" rx="1" ry="4"/>
<path class="st1" d="M238,416c0,11.6-6.2,18-14,18s-14-6.4-14-18s8.2,2,16,2S238,404.4,238,416z"/>
<path class="st3" d="M228,424h-6c-2.2,0-4-1.8-4-4l0,0c0-8,0-4,4-2h6c4-2,4-4,4,2l0,0C232,422.2,230.2,424,228,424z"/>
<path class="st3" d="M236,422L236,422c-1.1,0-2-0.9-2-2v-6c0,0,0.9-2,2-2l0,0c1.1,0,2,2,2,2s0,4.5,0,6C238,421.1,236,422,236,422z"
	/>
<path class="st3" d="M212,422L212,422c-1.1,0-2-0.9-2-2v-6c0,0,0.9-2,2-2l0,0c4,0,4,2,4,2l-2,6C214,421.1,212,422,212,422z"/>
<circle class="st0" cx="224" cy="442" r="4"/>
<path class="st4" d="M226,438c0,2.2-0.3,4-2,4s-2-1.8-2-4s1.3-4,3-4S226,435.8,226,438z"/>
<path class="st0" d="M238,419c0,1.7-1.3,3-3,3s-3-0.3-3-2s1.3-4,3-4S238,417.3,238,419z"/>
<path class="st2" d="M228,410c0,1.6,0.2,4-2,4s-2-0.4-2-2s-0.2-4,2-4S228,408.4,228,410z"/>
<path class="st0" d="M250,417c0,1.7-1.3,3-3,3s-3-0.3-3-2s1.3-4,3-4S250,415.3,250,417z"/>
<path class="st0" d="M302,416c0,11.6-6.2,18-14,18s-14-6.4-14-18s6.2-22,14-22S302,404.4,302,416z"/>
<path class="st1" d="M302,394c0,1.1-3.1,4-7,4s-7-2.9-7-4s3.1,0,7,0S302,392.9,302,394z"/>
<ellipse class="st1" cx="288" cy="393" rx="6" ry="3"/>
<ellipse class="st2" cx="285" cy="404" rx="1" ry="4"/>
<ellipse class="st2" cx="295" cy="404" rx="1" ry="4"/>
<path class="st1" d="M302,416c0,11.6-6.2,18-14,18s-14-6.4-14-18s8.2,2,16,2S302,404.4,302,416z"/>
<path class="st3" d="M292,424h-6c-2.2,0-4-1.8-4-4l0,0c0-8,0-4,4-2h6c4-2,4-4,4,2l0,0C296,422.2,294.2,424,292,424z"/>
<path class="st3" d="M300,422L300,422c-1.1,0-2-0.9-2-2v-6c0,0,0.9-2,2-2l0,0c1.1,0,2,2,2,2s0,4.5,0,6C302,421.1,300,422,300,422z"
	/>
<path class="st3" d="M276,422L276,422c-1.1,0-2-0.9-2-2v-6c0,0,0.9-2,2-2l0,0c4,0,4,2,4,2l-2,6C278,421.1,276,422,276,422z"/>
<circle class="st0" cx="288" cy="442" r="4"/>
<path class="st4" d="M290,438c0,2.2-0.3,4-2,4s-2-1.8-2-4s1.3-4,3-4S290,435.8,290,438z"/>
<path class="st0" d="M302,421c0,1.7-1.3,3-3,3s-3-0.3-3-2s1.3-4,3-4S302,419.3,302,421z"/>
<path class="st2" d="M292,410c0,1.6,0.2,4-2,4s-2-0.4-2-2s-0.2-4,2-4S292,408.4,292,410z"/>
<path class="st0" d="M314,415c0,1.7-1.3,3-3,3s-3-0.3-3-2s1.3-4,3-4S314,413.3,314,415z"/>
<path class="st0" d="M366,416c0,11.6-6.2,18-14,18s-14-6.4-14-18s6.2-22,14-22S366,404.4,366,416z"/>
<path class="st1" d="M366,394c0,1.1-3.1,4-7,4s-7-2.9-7-4s3.1,0,7,0S366,392.9,366,394z"/>
<ellipse class="st1" cx="352" cy="393" rx="6" ry="3"/>
<ellipse class="st2" cx="349" cy="404" rx="1" ry="4"/>
<ellipse class="st2" cx="359" cy="404" rx="1" ry="4"/>
<path class="st1" d="M366,416c0,11.6-6.2,18-14,18s-14-6.4-14-18s8.2,2,16,2S366,404.4,366,416z"/>
<path class="st3" d="M356,424h-6c-2.2,0-4-1.8-4-4l0,0c0-8,0-4,4-2h6c4-2,4-4,4,2l0,0C360,422.2,358.2,424,356,424z"/>
<path class="st3" d="M364,422L364,422c-1.1,0-2-0.9-2-2v-6c0,0,0.9-2,2-2l0,0c1.1,0,2,2,2,2s0,4.5,0,6C366,421.1,364,422,364,422z"
	/>
<path class="st3" d="M340,422L340,422c-1.1,0-2-0.9-2-2v-6c0,0,0.9-2,2-2l0,0c4,0,4,2,4,2l-2,6C342,421.1,340,422,340,422z"/>
<circle class="st0" cx="352" cy="442" r="4"/>
<path class="st4" d="M354,438c0,2.2-0.3,4-2,4s-2-1.8-2-4s1.3-4,3-4S354,435.8,354,438z"/>
<path class="st0" d="M366,423c0,1.7-1.3,3-3,3s-3-0.3-3-2s1.3-4,3-4S366,421.3,366,423z"/>
<path class="st2" d="M356,410c0,1.6,0.2,4-2,4s-2-0.4-2-2s-0.2-4,2-4S356,408.4,356,410z"/>
<path class="st0" d="M378,413c0,1.7-1.3,3-3,3s-3-0.3-3-2s1.3-4,3-4S378,411.3,378,413z"/>
<path class="st0" d="M430,416c0,11.6-6.2,18-14,18s-14-6.4-14-18s6.2-22,14-22S430,404.4,430,416z"/>
<path class="st1" d="M430,394c0,1.1-3.1,4-7,4s-7-2.9-7-4s3.1,0,7,0S430,392.9,430,394z"/>
<ellipse class="st1" cx="416" cy="393" rx="6" ry="3"/>
<ellipse class="st2" cx="413" cy="404" rx="1" ry="4"/>
<ellipse class="st2" cx="423" cy="404" rx="1" ry="4"/>
<path class="st1" d="M430,416c0,11.6-6.2,18-14,18s-14-6.4-14-18s8.2,2,16,2S430,404.4,430,416z"/>
<path class="st3" d="M420,424h-6c-2.2,0-4-1.8-4-4l0,0c0-8,0-4,4-2h6c4-2,4-4,4,2l0,0C424,422.2,422.2,424,420,424z"/>
<path class="st3" d="M428,422L428,422c-1.1,0-2-0.9-2-2v-6c0,0,0.9-2,2-2l0,0c1.1,0,2,2,2,2s0,4.5,0,6C430,421.1,428,422,428,422z"
	/>
<path class="st3" d="M404,422L404,422c-1.1,0-2-0.9-2-2v-6c0,0,0.9-2,2-2l0,0c4,0,4,2,4,2l-2,6C406,421.1,404,422,404,422z"/>
<circle class="st0" cx="416" cy="442" r="4"/>
<path class="st4" d="M418,438c0,2.2-0.3,4-2,4s-2-1.8-2-4s1.3-4,3-4S418,435.8,418,438z"/>
<path class="st0" d="M430,421c0,1.7-1.3,3-3,3s-3-0.3-3-2s1.3-4,3-4S430,419.3,430,421z"/>
<path class="st2" d="M420,410c0,1.6,0.2,4-2,4s-2-0.4-2-2s-0.2-4,2-4S420,408.4,420,410z"/>
<path class="st0" d="M442,415c0,1.7-1.3,3-3,3s-3-0.3-3-2s1.3-4,3-4S442,413.3,442,415z"/>
<path class="st0" d="M494,416c0,11.6-6.2,18-14,18s-14-6.4-14-18s6.2-22,14-22S494,404.4,494,416z"/>
<path class="st1" d="M494,394c0,1.1-3.1,4-7,4s-7-2.9-7-4s3.1,0,7,0S494,392.9,494,394z"/>
<ellipse class="st1" cx="480" cy="393" rx="6" ry="3"/>
<ellipse class="st2" cx="477" cy="404" rx="1" ry="4"/>
<ellipse class="st2" cx="487" cy="404" rx="1" ry="4"/>
<path class="st1" d="M494,416c0,11.6-6.2,18-14,18s-14-6.4-14-18s8.2,2,16,2S494,404.4,494,416z"/>
<path class="st3" d="M484,424h-6c-2.2,0-4-1.8-4-4l0,0c0-8,0-4,4-2h6c4-2,4-4,4,2l0,0C488,422.2,486.2,424,484,424z"/>
<path class="st3" d="M492,422L492,422c-1.1,0-2-0.9-2-2v-6c0,0,0.9-2,2-2l0,0c1.1,0,2,2,2,2s0,4.5,0,6C494,421.1,492,422,492,422z"
	/>
<path class="st3" d="M468,422L468,422c-1.1,0-2-0.9-2-2v-6c0,0,0.9-2,2-2l0,0c4,0,4,2,4,2l-2,6C470,421.1,468,422,468,422z"/>
<circle class="st0" cx="480" cy="442" r="4"/>
<path class="st4" d="M482,438c0,2.2-0.3,4-2,4s-2-1.8-2-4s1.3-4,3-4S482,435.8,482,438z"/>
<path class="st0" d="M494,419c0,1.7-1.3,3-3,3s-3-0.3-3-2s1.3-4,3-4S494,417.3,494,419z"/>
<path class="st2" d="M484,410c0,1.6,0.2,4-2,4s-2-0.4-2-2s-0.2-4,2-4S484,408.4,484,410z"/>
<path class="st0" d="M506,417c0,1.7-1.3,3-3,3s-3-0.3-3-2s1.3-4,3-4S506,415.3,506,417z"/>
<path class="st0" d="M464,480c0,11.6,6.2,18,14,18s14-6.4,14-18s-6.2-22-14-22S464,468.4,464,480z"/>
<path class="st1" d="M464,458c0,1.1,3.1,4,7,4s7-2.9,7-4s-3.1,0-7,0S464,456.9,464,458z"/>
<ellipse class="st1" cx="478" cy="457" rx="6" ry="3"/>
<ellipse class="st2" cx="481" cy="468" rx="1" ry="4"/>
<ellipse class="st2" cx="471" cy="468" rx="1" ry="4"/>
<path class="st1" d="M464,480c0,11.6,6.2,18,14,18s14-6.4,14-18s-8.2,2-16,2S464,468.4,464,480z"/>
<path class="st3" d="M474,488h6c2.2,0,4-1.8,4-4l0,0c0-8,0-4-4-2h-6c-4-2-4-4-4,2l0,0C470,486.2,471.8,488,474,488z"/>
<path class="st3" d="M466,486L466,486c1.1,0,2-0.9,2-2v-6c0,0-0.9-2-2-2l0,0c-1.1,0-2,2-2,2s0,4.5,0,6C464,485.1,466,486,466,486z"
	/>
<path class="st3" d="M490,486L490,486c1.1,0,2-0.9,2-2v-6c0,0-0.9-2-2-2l0,0c-4,0-4,2-4,2l2,6C488,485.1,490,486,490,486z"/>
<circle class="st0" cx="478" cy="506" r="4"/>
<path class="st4" d="M476,502c0,2.2,0.3,4,2,4s2-1.8,2-4s-1.3-4-3-4S476,499.8,476,502z"/>
<path class="st0" d="M464,485c0,1.7,1.3,3,3,3s3-0.3,3-2s-1.3-4-3-4S464,483.3,464,485z"/>
<path class="st2" d="M474,474c0,1.6-0.2,4,2,4s2-0.4,2-2s0.2-4-2-4S474,472.4,474,474z"/>
<path class="st0" d="M452,479c0,1.7,1.3,3,3,3s3-0.3,3-2s-1.3-4-3-4S452,477.3,452,479z"/>
<path class="st0" d="M400,480c0,11.6,6.2,18,14,18s14-6.4,14-18s-6.2-22-14-22S400,468.4,400,480z"/>
<path class="st1" d="M400,458c0,1.1,3.1,4,7,4s7-2.9,7-4s-3.1,0-7,0S400,456.9,400,458z"/>
<ellipse class="st1" cx="414" cy="457" rx="6" ry="3"/>
<ellipse class="st2" cx="417" cy="468" rx="1" ry="4"/>
<ellipse class="st2" cx="407" cy="468" rx="1" ry="4"/>
<path class="st1" d="M400,480c0,11.6,6.2,18,14,18s14-6.4,14-18s-8.2,2-16,2S400,468.4,400,480z"/>
<path class="st3" d="M410,488h6c2.2,0,4-1.8,4-4l0,0c0-8,0-4-4-2h-6c-4-2-4-4-4,2l0,0C406,486.2,407.8,488,410,488z"/>
<path class="st3" d="M402,486L402,486c1.1,0,2-0.9,2-2v-6c0,0-0.9-2-2-2l0,0c-1.1,0-2,2-2,2s0,4.5,0,6C400,485.1,402,486,402,486z"
	/>
<path class="st3" d="M426,486L426,486c1.1,0,2-0.9,2-2v-6c0,0-0.9-2-2-2l0,0c-4,0-4,2-4,2l2,6C424,485.1,426,486,426,486z"/>
<circle class="st0" cx="414" cy="506" r="4"/>
<path class="st4" d="M412,502c0,2.2,0.3,4,2,4s2-1.8,2-4s-1.3-4-3-4S412,499.8,412,502z"/>
<path class="st0" d="M400,487c0,1.7,1.3,3,3,3s3-0.3,3-2s-1.3-4-3-4S400,485.3,400,487z"/>
<path class="st2" d="M410,474c0,1.6-0.2,4,2,4s2-0.4,2-2s0.2-4-2-4S410,472.4,410,474z"/>
<path class="st0" d="M388,477c0,1.7,1.3,3,3,3s3-0.3,3-2s-1.3-4-3-4S388,475.3,388,477z"/>
<path class="st0" d="M336,480c0,11.6,6.2,18,14,18s14-6.4,14-18s-6.2-22-14-22S336,468.4,336,480z"/>
<path class="st1" d="M336,458c0,1.1,3.1,4,7,4s7-2.9,7-4s-3.1,0-7,0S336,456.9,336,458z"/>
<ellipse class="st1" cx="350" cy="457" rx="6" ry="3"/>
<ellipse class="st2" cx="353" cy="468" rx="1" ry="4"/>
<ellipse class="st2" cx="343" cy="468" rx="1" ry="4"/>
<path class="st1" d="M336,480c0,11.6,6.2,18,14,18s14-6.4,14-18s-8.2,2-16,2S336,468.4,336,480z"/>
<path class="st3" d="M346,488h6c2.2,0,4-1.8,4-4l0,0c0-8,0-4-4-2h-6c-4-2-4-4-4,2l0,0C342,486.2,343.8,488,346,488z"/>
<path class="st3" d="M338,486L338,486c1.1,0,2-0.9,2-2v-6c0,0-0.9-2-2-2l0,0c-1.1,0-2,2-2,2s0,4.5,0,6C336,485.1,338,486,338,486z"
	/>
<path class="st3" d="M362,486L362,486c1.1,0,2-0.9,2-2v-6c0,0-0.9-2-2-2l0,0c-4,0-4,2-4,2l2,6C360,485.1,362,486,362,486z"/>
<circle class="st0" cx="350" cy="506" r="4"/>
<path class="st4" d="M348,502c0,2.2,0.3,4,2,4s2-1.8,2-4s-1.3-4-3-4S348,499.8,348,502z"/>
<path class="st0" d="M336,485c0,1.7,1.3,3,3,3s3-0.3,3-2s-1.3-4-3-4S336,483.3,336,485z"/>
<path class="st2" d="M346,474c0,1.6-0.2,4,2,4s2-0.4,2-2s0.2-4-2-4S346,472.4,346,474z"/>
<path class="st0" d="M324,479c0,1.7,1.3,3,3,3s3-0.3,3-2s-1.3-4-3-4S324,477.3,324,479z"/>
<path class="st0" d="M272,480c0,11.6,6.2,18,14,18s14-6.4,14-18s-6.2-22-14-22S272,468.4,272,480z"/>
<path class="st1" d="M272,458c0,1.1,3.1,4,7,4s7-2.9,7-4s-3.1,0-7,0S272,456.9,272,458z"/>
<ellipse class="st1" cx="286" cy="457" rx="6" ry="3"/>
<ellipse class="st2" cx="289" cy="468" rx="1" ry="4"/>
<ellipse class="st2" cx="279" cy="468" rx="1" ry="4"/>
<path class="st1" d="M272,480c0,11.6,6.2,18,14,18s14-6.4,14-18s-8.2,2-16,2S272,468.4,272,480z"/>
<path class="st3" d="M282,488h6c2.2,0,4-1.8,4-4l0,0c0-8,0-4-4-2h-6c-4-2-4-4-4,2l0,0C278,486.2,279.8,488,282,488z"/>
<path class="st3" d="M274,486L274,486c1.1,0,2-0.9,2-2v-6c0,0-0.9-2-2-2l0,0c-1.1,0-2,2-2,2s0,4.5,0,6C272,485.1,274,486,274,486z"
	/>
<path class="st3" d="M298,486L298,486c1.1,0,2-0.9,2-2v-6c0,0-0.9-2-2-2l0,0c-4,0-4,2-4,2l2,6C296,485.1,298,486,298,486z"/>
<circle class="st0" cx="286" cy="506" r="4"/>
<path class="st4" d="M284,502c0,2.2,0.3,4,2,4s2-1.8,2-4s-1.3-4-3-4S284,499.8,284,502z"/>
<path class="st0" d="M272,483c0,1.7,1.3,3,3,3s3-0.3,3-2s-1.3-4-3-4S272,481.3,272,483z"/>
<path class="st2" d="M282,474c0,1.6-0.2,4,2,4s2-0.4,2-2s0.2-4-2-4S282,472.4,282,474z"/>
<path class="st0" d="M260,481c0,1.7,1.3,3,3,3s3-0.3,3-2s-1.3-4-3-4S260,479.3,260,481z"/>
<path class="st0" d="M208,480c0,11.6,6.2,18,14,18s14-6.4,14-18s-6.2-22-14-22S208,468.4,208,480z"/>
<path class="st1" d="M208,458c0,1.1,3.1,4,7,4s7-2.9,7-4s-3.1,0-7,0S208,456.9,208,458z"/>
<ellipse class="st1" cx="222" cy="457" rx="6" ry="3"/>
<ellipse class="st2" cx="225" cy="468" rx="1" ry="4"/>
<ellipse class="st2" cx="215" cy="468" rx="1" ry="4"/>
<path class="st1" d="M208,480c0,11.6,6.2,18,14,18s14-6.4,14-18s-8.2,2-16,2S208,468.4,208,480z"/>
<path class="st3" d="M218,488h6c2.2,0,4-1.8,4-4l0,0c0-8,0-4-4-2h-6c-4-2-4-4-4,2l0,0C214,486.2,215.8,488,218,488z"/>
<path class="st3" d="M210,486L210,486c1.1,0,2-0.9,2-2v-6c0,0-0.9-2-2-2l0,0c-1.1,0-2,2-2,2s0,4.5,0,6C208,485.1,210,486,210,486z"
	/>
<path class="st3" d="M234,486L234,486c1.1,0,2-0.9,2-2v-6c0,0-0.9-2-2-2l0,0c-4,0-4,2-4,2l2,6C232,485.1,234,486,234,486z"/>
<circle class="st0" cx="222" cy="506" r="4"/>
<path class="st4" d="M220,502c0,2.2,0.3,4,2,4s2-1.8,2-4s-1.3-4-3-4S220,499.8,220,502z"/>
<path class="st0" d="M208,485c0,1.7,1.3,3,3,3s3-0.3,3-2s-1.3-4-3-4S208,483.3,208,485z"/>
<path class="st2" d="M218,474c0,1.6-0.2,4,2,4s2-0.4,2-2s0.2-4-2-4S218,472.4,218,474z"/>
<path class="st0" d="M196,479c0,1.7,1.3,3,3,3s3-0.3,3-2s-1.3-4-3-4S196,477.3,196,479z"/>
<path class="st0" d="M144,480c0,11.6,6.2,18,14,18s14-6.4,14-18s-6.2-22-14-22S144,468.4,144,480z"/>
<path class="st1" d="M144,458c0,1.1,3.1,4,7,4s7-2.9,7-4s-3.1,0-7,0S144,456.9,144,458z"/>
<ellipse class="st1" cx="158" cy="457" rx="6" ry="3"/>
<ellipse class="st2" cx="161" cy="468" rx="1" ry="4"/>
<ellipse class="st2" cx="151" cy="468" rx="1" ry="4"/>
<path class="st1" d="M144,480c0,11.6,6.2,18,14,18s14-6.4,14-18s-8.2,2-16,2S144,468.4,144,480z"/>
<path class="st3" d="M154,488h6c2.2,0,4-1.8,4-4l0,0c0-8,0-4-4-2h-6c-4-2-4-4-4,2l0,0C150,486.2,151.8,488,154,488z"/>
<path class="st3" d="M146,486L146,486c1.1,0,2-0.9,2-2v-6c0,0-0.9-2-2-2l0,0c-1.1,0-2,2-2,2s0,4.5,0,6C144,485.1,146,486,146,486z"
	/>
<path class="st3" d="M170,486L170,486c1.1,0,2-0.9,2-2v-6c0,0-0.9-2-2-2l0,0c-4,0-4,2-4,2l2,6C168,485.1,170,486,170,486z"/>
<circle class="st0" cx="158" cy="506" r="4"/>
<path class="st4" d="M156,502c0,2.2,0.3,4,2,4s2-1.8,2-4s-1.3-4-3-4S156,499.8,156,502z"/>
<path class="st0" d="M144,487c0,1.7,1.3,3,3,3s3-0.3,3-2s-1.3-4-3-4S144,485.3,144,487z"/>
<path class="st2" d="M154,474c0,1.6-0.2,4,2,4s2-0.4,2-2s0.2-4-2-4S154,472.4,154,474z"/>
<path class="st0" d="M132,477c0,1.7,1.3,3,3,3s3-0.3,3-2s-1.3-4-3-4S132,475.3,132,477z"/>
<path class="st0" d="M80,480c0,11.6,6.2,18,14,18s14-6.4,14-18s-6.2-22-14-22S80,468.4,80,480z"/>
<path class="st1" d="M80,458c0,1.1,3.1,4,7,4s7-2.9,7-4s-3.1,0-7,0S80,456.9,80,458z"/>
<ellipse class="st1" cx="94" cy="457" rx="6" ry="3"/>
<ellipse class="st2" cx="97" cy="468" rx="1" ry="4"/>
<ellipse class="st2" cx="87" cy="468" rx="1" ry="4"/>
<path class="st1" d="M80,480c0,11.6,6.2,18,14,18s14-6.4,14-18s-8.2,2-16,2S80,468.4,80,480z"/>
<path class="st3" d="M90,488h6c2.2,0,4-1.8,4-4l0,0c0-8,0-4-4-2h-6c-4-2-4-4-4,2l0,0C86,486.2,87.8,488,90,488z"/>
<path class="st3" d="M82,486L82,486c1.1,0,2-0.9,2-2v-6c0,0-0.9-2-2-2l0,0c-1.1,0-2,2-2,2s0,4.5,0,6C80,485.1,82,486,82,486z"/>
<path class="st3" d="M106,486L106,486c1.1,0,2-0.9,2-2v-6c0,0-0.9-2-2-2l0,0c-4,0-4,2-4,2l2,6C104,485.1,106,486,106,486z"/>
<circle class="st0" cx="94" cy="506" r="4"/>
<path class="st4" d="M92,502c0,2.2,0.3,4,2,4s2-1.8,2-4s-1.3-4-3-4S92,499.8,92,502z"/>
<path class="st0" d="M80,485c0,1.7,1.3,3,3,3s3-0.3,3-2s-1.3-4-3-4S80,483.3,80,485z"/>
<path class="st2" d="M90,474c0,1.6-0.2,4,2,4c2.2,0,2-0.4,2-2s0.2-4-2-4C89.8,472,90,472.4,90,474z"/>
<path class="st0" d="M68,479c0,1.7,1.3,3,3,3s3-0.3,3-2s-1.3-4-3-4S68,477.3,68,479z"/>
<path class="st0" d="M16,480c0,11.6,6.2,18,14,18s14-6.4,14-18s-6.2-22-14-22S16,468.4,16,480z"/>
<path class="st1" d="M16,458c0,1.1,3.1,4,7,4s7-2.9,7-4s-3.1,0-7,0S16,456.9,16,458z"/>
<ellipse class="st1" cx="30" cy="457" rx="6" ry="3"/>
<ellipse class="st2" cx="33" cy="468" rx="1" ry="4"/>
<ellipse class="st2" cx="23" cy="468" rx="1" ry="4"/>
<path class="st1" d="M16,480c0,11.6,6.2,18,14,18s14-6.4,14-18s-8.2,2-16,2S16,468.4,16,480z"/>
<path class="st3" d="M26,488h6c2.2,0,4-1.8,4-4l0,0c0-8,0-4-4-2h-6c-4-2-4-4-4,2l0,0C22,486.2,23.8,488,26,488z"/>
<path class="st3" d="M18,486L18,486c1.1,0,2-0.9,2-2v-6c0,0-0.9-2-2-2h0c-1.1,0-2,2-2,2s0,4.5,0,6C16,485.1,18,486,18,486z"/>
<path class="st3" d="M42,486L42,486c1.1,0,2-0.9,2-2v-6c0,0-0.9-2-2-2h0c-4,0-4,2-4,2l2,6C40,485.1,42,486,42,486z"/>
<circle class="st0" cx="30" cy="506" r="4"/>
<path class="st4" d="M28,502c0,2.2,0.3,4,2,4s2-1.8,2-4s-1.3-4-3-4S28,499.8,28,502z"/>
<path class="st0" d="M16,483c0,1.7,1.3,3,3,3s3-0.3,3-2s-1.3-4-3-4S16,481.3,16,483z"/>
<path class="st2" d="M26,474c0,1.6-0.2,4,2,4s2-0.4,2-2s0.2-4-2-4S26,472.4,26,474z"/>
<path class="st0" d="M4,481c0,1.7,1.3,3,3,3s3-0.3,3-2s-1.3-4-3-4S4,479.3,4,481z"/>
</svg>
